<svg width="48" height="48" viewBox="0 0 48 48" fill="none" xmlns="http://www.w3.org/2000/svg">
<g opacity="0.9" clip-path="url(#clip0_1_373)">
<path fill-rule="evenodd" clip-rule="evenodd" d="M24 0C37.2554 0 48 10.7446 48 24C48 37.2554 37.2554 48 24 48C10.7446 48 0 37.2554 0 24C0 10.7446 10.7446 0 24 0ZM21.6185 18.504V21.0535H19.4991L19.5028 24.9065L22.0431 24.8769V33.3748H25.8591V24.8769H28.8258L29.2505 21.0554H25.8591V18.9305C25.8591 18.3249 25.9994 18.0812 26.7083 18.0812H29.2505L29.2062 14.4369C29.2062 14.4369 28.1686 14.2505 26.5477 14.2505C22.992 14.2505 21.6185 16.392 21.6185 18.504Z" fill="#3A5792"/>
</g>
<defs>
<clipPath id="clip0_1_373">
<rect width="48" height="48" fill="white"/>
</clipPath>
</defs>
</svg>
