<svg width="48" height="48" viewBox="0 0 48 48" fill="none" xmlns="http://www.w3.org/2000/svg">
<g opacity="0.9" clip-path="url(#clip0_1_379)">
<path fill-rule="evenodd" clip-rule="evenodd" d="M24 0C37.2554 0 48 10.7446 48 24C48 37.2554 37.2554 48 24 48C10.7446 48 0 37.2554 0 24C0 10.7446 10.7446 0 24 0ZM20.5385 15C19.0696 15 17.6608 15.5835 16.6222 16.6222C15.5835 17.6608 15 19.0696 15 20.5385V27.4615C15 28.9304 15.5835 30.3392 16.6222 31.3778C17.6608 32.4165 19.0696 33 20.5385 33H27.4615C28.9304 33 30.3392 32.4165 31.3778 31.3778C32.4165 30.3392 33 28.9304 33 27.4615V20.5385C33 19.0696 32.4165 17.6608 31.3778 16.6222C30.3392 15.5835 28.9304 15 27.4615 15H20.5385ZM28.1132 18.7828C28.1071 18.6312 28.1316 18.4799 28.1854 18.338C28.2392 18.1961 28.3211 18.0666 28.4262 17.9572C28.5313 17.8477 28.6574 17.7606 28.797 17.7012C28.9366 17.6417 29.0867 17.611 29.2385 17.611C29.3902 17.611 29.5403 17.6417 29.6799 17.7012C29.8195 17.7606 29.9456 17.8477 30.0507 17.9572C30.1558 18.0666 30.2377 18.1961 30.2915 18.338C30.3453 18.4799 30.3698 18.6312 30.3637 18.7828C30.3519 19.0733 30.2282 19.348 30.0185 19.5495C29.8088 19.7509 29.5292 19.8633 29.2385 19.8633C28.9477 19.8633 28.6682 19.7509 28.4584 19.5495C28.2487 19.348 28.125 19.0733 28.1132 18.7828ZM24.0111 28.5009C22.8174 28.5009 21.6725 28.0267 20.8284 27.1826C19.9844 26.3385 19.5102 25.1937 19.5102 24C19.5102 22.8063 19.9844 21.6615 20.8284 20.8174C21.6725 19.9733 22.8174 19.4991 24.0111 19.4991C25.2048 19.4991 26.3496 19.9733 27.1937 20.8174C28.0378 21.6615 28.512 22.8063 28.512 24C28.512 25.1937 28.0378 26.3385 27.1937 27.1826C26.3496 28.0267 25.2048 28.5009 24.0111 28.5009ZM24 27.0203C24.7957 27.0203 25.5587 26.7042 26.1213 26.1416C26.6839 25.579 27 24.816 27 24.0203C27 23.2247 26.6839 22.4616 26.1213 21.899C25.5587 21.3364 24.7957 21.0203 24 21.0203C23.2044 21.0203 22.4413 21.3364 21.8787 21.899C21.3161 22.4616 21 23.2247 21 24.0203C21 24.816 21.3161 25.579 21.8787 26.1416C22.4413 26.7042 23.2044 27.0203 24 27.0203Z" fill="#D41792"/>
</g>
<defs>
<clipPath id="clip0_1_379">
<rect width="48" height="48" fill="white"/>
</clipPath>
</defs>
</svg>
