<svg width="19" height="18" viewBox="0 0 19 18" fill="none" xmlns="http://www.w3.org/2000/svg">
<g clip-path="url(#clip0_1_414)">
<path fill-rule="evenodd" clip-rule="evenodd" d="M3 0H15.023C15.8186 0 16.5817 0.31607 17.1443 0.87868C17.7069 1.44129 18.023 2.20435 18.023 3V15C18.023 15.7956 17.7069 16.5587 17.1443 17.1213C16.5817 17.6839 15.8186 18 15.023 18H3C2.20435 18 1.44129 17.6839 0.87868 17.1213C0.31607 16.5587 0 15.7956 0 15L0 3C0 2.20435 0.31607 1.44129 0.87868 0.87868C1.44129 0.31607 2.20435 0 3 0ZM13.13 3.783C13.1303 4.08163 13.2492 4.36793 13.4605 4.57891C13.6719 4.78989 13.9584 4.90827 14.257 4.908C14.5556 4.90773 14.8419 4.78885 15.0529 4.5775C15.2639 4.36614 15.3823 4.07963 15.382 3.781C15.3817 3.48237 15.2628 3.19607 15.0515 2.98509C14.8401 2.77411 14.5536 2.65573 14.255 2.656C13.9564 2.65627 13.6701 2.77515 13.4591 2.9865C13.2481 3.19786 13.1297 3.48437 13.13 3.783ZM9.023 13.5C9.61443 13.5005 10.2002 13.3845 10.7468 13.1587C11.2934 12.9328 11.7901 12.6015 12.2086 12.1836C12.6272 11.7657 12.9593 11.2695 13.186 10.7232C13.4127 10.177 13.5296 9.59143 13.53 9C13.53 6.515 11.513 4.5 9.024 4.5C8.43266 4.49961 7.84703 4.61569 7.30055 4.84162C6.75407 5.06756 6.25744 5.39891 5.83902 5.81678C5.4206 6.23464 5.08858 6.73083 4.86192 7.277C4.63526 7.82318 4.51839 8.40866 4.518 9C4.518 11.485 6.535 13.5 9.023 13.5ZM9.012 12.021C8.61777 12.0213 8.22735 11.9439 7.86303 11.7933C7.49871 11.6426 7.16763 11.4217 6.88868 11.1431C6.60973 10.8646 6.38839 10.5338 6.23728 10.1697C6.08617 9.80554 6.00826 9.41523 6.008 9.021C6.008 7.364 7.353 6.021 9.012 6.021C9.80801 6.02073 10.5715 6.33662 11.1347 6.8992C11.6978 7.46179 12.0145 8.22499 12.015 9.021C12.015 10.678 10.671 12.021 9.012 12.021Z" fill="#E4009C"/>
</g>
<defs>
<clipPath id="clip0_1_414">
<rect width="19" height="18" fill="white"/>
</clipPath>
</defs>
</svg>
