<svg width="22" height="18" viewBox="0 0 22 18" fill="none" xmlns="http://www.w3.org/2000/svg">
<g clip-path="url(#clip0_1_402)">
<path fill-rule="evenodd" clip-rule="evenodd" d="M15.134 0C16.424 0 17.589 0.552 18.407 1.435C19.4124 1.2339 20.3755 0.860755 21.254 0.332C20.9228 1.38085 20.2225 2.27404 19.283 2.846C20.1728 2.73906 21.0413 2.49799 21.859 2.131C21.2584 3.04156 20.5006 3.83798 19.621 4.483C19.629 4.678 19.634 4.873 19.634 5.071C19.634 11.076 15.124 18 6.874 18C4.342 18 1.984 17.248 0 15.958C1.17623 16.101 2.36916 16.0083 3.50919 15.6853C4.64922 15.3624 5.71352 14.8156 6.64 14.077C4.677 14.04 3.02 12.726 2.45 10.921C3.12197 11.0516 3.81507 11.0249 4.475 10.843C2.424 10.426 0.878 8.59 0.878 6.387V6.33C1.483 6.67 2.175 6.875 2.91 6.898C2.29354 6.47881 1.78931 5.91482 1.44149 5.25546C1.09368 4.59609 0.912898 3.86148 0.915 3.116C0.915 2.283 1.136 1.503 1.522 0.832C3.734 3.58 7.038 5.39 10.765 5.58C10.6875 5.24013 10.6486 4.8926 10.649 4.544C10.649 2.034 12.657 0 15.134 0Z" fill="#1C95E0"/>
</g>
<defs>
<clipPath id="clip0_1_402">
<rect width="22" height="18" fill="white"/>
</clipPath>
</defs>
</svg>
