<svg width="48" height="48" viewBox="0 0 48 48" fill="none" xmlns="http://www.w3.org/2000/svg">
<g opacity="0.9" clip-path="url(#clip0_1_376)">
<path fill-rule="evenodd" clip-rule="evenodd" d="M24 0C37.2554 0 48 10.7446 48 24C48 37.2554 37.2554 48 24 48C10.7446 48 0 37.2554 0 24C0 10.7446 10.7446 0 24 0ZM28.6025 15.7495C26.2523 15.7495 24.3489 17.7138 24.3489 20.1342C24.3489 20.4775 24.3858 20.8117 24.4597 21.1329C20.9243 20.9502 17.7914 19.2055 15.6942 16.5526C15.3149 17.2253 15.1164 17.9847 15.1182 18.7569C15.1182 20.2763 15.8677 21.6185 17.0105 22.4049C16.3328 22.3829 15.6709 22.1946 15.0831 21.8566V21.912C15.0831 24.0351 16.5489 25.8074 18.4948 26.2117C17.8694 26.3862 17.2117 26.4115 16.5748 26.2855C17.1138 28.0265 18.6849 29.2948 20.5458 29.3317C19.6724 30.0418 18.6647 30.5685 17.583 30.8803C16.5013 31.1921 15.3679 31.2826 14.2505 31.1465C16.182 32.4306 18.4498 33.1159 20.7692 33.1163C28.5914 33.1163 32.8689 26.4351 32.8689 20.6418C32.8693 20.4529 32.8656 20.2639 32.8578 20.0751C33.6946 19.45 34.4135 18.6811 34.9809 17.8043C34.2065 18.159 33.3821 18.3925 32.5366 18.4966C33.4319 17.9397 34.096 17.0783 34.4068 16.0708C33.5753 16.58 32.6613 16.9398 31.7058 17.1342C31.3139 16.6994 30.8353 16.3516 30.3008 16.1132C29.7663 15.8747 29.1878 15.7508 28.6025 15.7495Z" fill="#2691D5"/>
</g>
<defs>
<clipPath id="clip0_1_376">
<rect width="48" height="48" fill="white"/>
</clipPath>
</defs>
</svg>
