<svg width="48" height="48" viewBox="0 0 48 48" fill="none" xmlns="http://www.w3.org/2000/svg">
<g opacity="0.9" clip-path="url(#clip0_1_382)">
<path fill-rule="evenodd" clip-rule="evenodd" d="M24 0C37.2554 0 48 10.7446 48 24C48 37.2554 37.2554 48 24 48C10.7446 48 0 37.2554 0 24C0 10.7446 10.7446 0 24 0ZM34.0615 18.8418C33.9449 18.3911 33.712 17.979 33.3861 17.6466C33.0601 17.3142 32.6526 17.0732 32.2043 16.9477C30.5668 16.5009 24 16.5009 24 16.5009C24 16.5009 17.4332 16.5009 15.7957 16.9477C15.3474 17.0732 14.9399 17.3142 14.6139 17.6466C14.288 17.979 14.0551 18.3911 13.9385 18.8418C13.5009 20.5126 13.5009 24 13.5009 24C13.5009 24 13.5009 27.4874 13.9385 29.1582C14.1785 30.0812 14.8911 30.8049 15.7957 31.0523C17.4332 31.4991 24 31.4991 24 31.4991C24 31.4991 30.5668 31.4991 32.2043 31.0523C32.6526 30.9268 33.0601 30.6858 33.3861 30.3534C33.712 30.021 33.9449 29.6089 34.0615 29.1582C34.5009 27.4874 34.5009 24 34.5009 24C34.5009 24 34.5009 20.5126 34.0615 18.8418ZM21.6794 27.4855V20.4148L27.9157 23.9502L21.6794 27.4855Z" fill="#EB0C19"/>
</g>
<defs>
<clipPath id="clip0_1_382">
<rect width="48" height="48" fill="white"/>
</clipPath>
</defs>
</svg>
