<svg width="32" height="32" viewBox="0 0 32 32" fill="none" xmlns="http://www.w3.org/2000/svg">
<g clip-path="url(#clip0_1_643)">
<g clip-path="url(#clip1_1_643)">
<path d="M16.3516 6.92308C17.6653 6.92308 19.3121 6.00763 20.2928 4.78703C21.1809 3.68086 21.8285 2.13605 21.8285 0.591227C21.8285 0.381437 21.81 0.171647 21.773 0C20.3113 0.0572155 18.5535 1.01081 17.4988 2.28862C16.6661 3.26128 15.9075 4.78703 15.9075 6.35092C15.9075 6.57978 15.9445 6.80865 15.963 6.88493C16.0555 6.90401 16.2035 6.92308 16.3516 6.92308ZM11.7257 30C13.5206 30 14.3162 28.7603 16.5551 28.7603C18.831 28.7603 19.3306 29.9619 21.329 29.9619C23.2903 29.9619 24.604 28.0928 25.8438 26.2619C27.2315 24.164 27.8051 22.1043 27.8421 22.0089C27.7126 21.9708 23.9564 20.3878 23.9564 15.9441C23.9564 12.0915 26.9169 10.356 27.0835 10.2225C25.1221 7.32359 22.1431 7.2473 21.329 7.2473C19.1271 7.2473 17.3322 8.62047 16.2035 8.62047C14.9823 8.62047 13.3725 7.32359 11.4667 7.32359C7.84005 7.32359 4.1579 10.4132 4.1579 16.2492C4.1579 19.8729 5.52714 23.7063 7.21094 26.1856C8.6542 28.2835 9.91242 30 11.7257 30Z" fill="black"/>
</g>
</g>
<defs>
<clipPath id="clip0_1_643">
<rect width="32" height="32" fill="white"/>
</clipPath>
<clipPath id="clip1_1_643">
<rect width="32" height="32" fill="white"/>
</clipPath>
</defs>
</svg>
