<svg width="160" height="160" viewBox="0 0 160 160" fill="none" xmlns="http://www.w3.org/2000/svg">
<g clip-path="url(#clip0_1_623)">
<g clip-path="url(#clip1_1_623)">
<g filter="url(#filter0_dd_1_623)">
<path d="M51.6797 15.625H108.32C120.857 15.625 125.404 16.9303 129.987 19.3816C134.57 21.8328 138.167 25.4298 140.618 30.0131C143.07 34.5964 144.375 39.1427 144.375 51.6797V108.32C144.375 120.857 143.07 125.404 140.618 129.987C138.167 134.57 134.57 138.167 129.987 140.618C125.404 143.07 120.857 144.375 108.32 144.375H51.6797C39.1425 144.375 34.5964 143.07 30.013 140.618C25.4297 138.167 21.8327 134.57 19.3814 129.987C16.9305 125.404 15.625 120.857 15.625 108.32V51.6797C15.625 39.1427 16.9305 34.5964 19.3816 30.0131C21.8328 25.4298 25.4298 21.8328 30.0131 19.3816C34.5966 16.9303 39.1428 15.625 51.6797 15.625Z" fill="black"/>
</g>
<path d="M51.6797 15.625H108.32C120.857 15.625 125.404 16.9303 129.987 19.3816C134.57 21.8328 138.167 25.4298 140.618 30.0131C143.07 34.5964 144.375 39.1427 144.375 51.6797V108.32C144.375 120.857 143.07 125.404 140.618 129.987C138.167 134.57 134.57 138.167 129.987 140.618C125.404 143.07 120.857 144.375 108.32 144.375H51.6797C39.1425 144.375 34.5964 143.07 30.013 140.618C25.4297 138.167 21.8327 134.57 19.3814 129.987C16.9305 125.404 15.625 120.857 15.625 108.32V51.6797C15.625 39.1427 16.9305 34.5964 19.3816 30.0131C21.8328 25.4298 25.4298 21.8328 30.0131 19.3816C34.5966 16.9303 39.1428 15.625 51.6797 15.625Z" fill="url(#paint0_radial_1_623)"/>
<g filter="url(#filter1_ii_1_623)">
<path d="M51.6797 15.625H108.32C120.857 15.625 125.404 16.9303 129.987 19.3816C134.57 21.8328 138.167 25.4298 140.618 30.0131C143.07 34.5964 144.375 39.1427 144.375 51.6797V108.32C144.375 120.857 143.07 125.404 140.618 129.987C138.167 134.57 134.57 138.167 129.987 140.618C125.404 143.07 120.857 144.375 108.32 144.375H51.6797C39.1425 144.375 34.5964 143.07 30.013 140.618C25.4297 138.167 21.8327 134.57 19.3814 129.987C16.9305 125.404 15.625 120.857 15.625 108.32V51.6797C15.625 39.1427 16.9305 34.5964 19.3816 30.0131C21.8328 25.4298 25.4298 21.8328 30.0131 19.3816C34.5966 16.9303 39.1428 15.625 51.6797 15.625Z" fill="black"/>
</g>
<path fill-rule="evenodd" clip-rule="evenodd" d="M81.7956 33.7619L81.8716 33.8347L92.7291 44.6925C93.6506 45.6138 93.6747 47.0941 92.8019 48.0447L92.7291 48.1206L81.8716 58.9784C80.9491 59.9006 79.4694 59.925 78.5181 59.0513L78.4422 58.9784L67.5853 48.1206C66.6631 47.1994 66.6391 45.7191 67.5125 44.7684L67.5853 44.6925L78.4422 33.8347C79.3641 32.9134 80.8438 32.8891 81.7956 33.7619ZM78.4422 67.2722C79.3891 66.3259 80.9241 66.3259 81.8716 67.2722L92.7291 78.13C93.6753 79.0759 93.6753 80.6119 92.7291 81.5578L81.8716 92.4159C80.9241 93.3631 79.3891 93.3631 78.4422 92.4159L67.5853 81.5578C66.6381 80.6119 66.6381 79.0759 67.5853 78.13L78.4422 67.2722ZM81.8716 100.709C80.9244 99.7634 79.3894 99.7634 78.4419 100.709L67.5856 111.567C66.6381 112.513 66.6381 114.05 67.5856 114.996L78.4419 125.853C79.3894 126.801 80.9244 126.801 81.8716 125.853L92.7294 114.996C93.6753 114.05 93.6753 112.513 92.7294 111.567L81.8716 100.709ZM109.521 64.7644L109.448 64.8403L98.59 75.6978C97.6691 76.6194 96.1888 76.6434 95.2381 75.7706L95.1622 75.6978L84.3041 64.8403C83.3819 63.9178 83.3575 62.4381 84.2313 61.4869L84.3041 61.4109L95.1622 50.5541C96.0831 49.6319 97.5638 49.6078 98.5141 50.4812L98.59 50.5541L109.448 61.4109C110.369 62.3328 110.393 63.8125 109.521 64.7644ZM76.0106 64.8403C76.9566 63.8928 76.9566 62.3578 76.0106 61.4109L65.1525 50.5541C64.2066 49.6069 62.6706 49.6069 61.7247 50.5541L50.8669 61.4109C49.9194 62.3578 49.9194 63.8928 50.8669 64.8403L61.7247 75.6978C62.6706 76.6441 64.2066 76.6441 65.1525 75.6978L76.0106 64.8403ZM109.448 94.8484C110.394 95.7953 110.394 97.3303 109.448 98.2778L98.59 109.135C97.6441 110.082 96.1082 110.082 95.1622 109.135L84.3044 98.2778C83.3569 97.3303 83.3569 95.7953 84.3044 94.8484L95.1622 83.9916C96.1082 83.0444 97.6441 83.0444 98.59 83.9916L109.448 94.8484ZM76.0106 98.2778C76.9566 97.3306 76.9566 95.7956 76.0106 94.8481L65.1528 83.9919C64.2069 83.0444 62.6706 83.0444 61.7244 83.9919L50.8666 94.8481C49.9194 95.7956 49.9194 97.3306 50.8666 98.2778L61.7244 109.136C62.6706 110.082 64.2069 110.082 65.1528 109.136L76.0106 98.2778Z" fill="url(#paint1_linear_1_623)"/>
<path style="mix-blend-mode:screen" opacity="0.3" fill-rule="evenodd" clip-rule="evenodd" d="M108.32 16.0938C120.725 16.0938 125.229 17.3687 129.766 19.7948C134.266 22.2017 137.798 25.7337 140.205 30.2342C142.631 34.7708 143.906 39.2755 143.906 51.6795V108.32C143.906 120.725 142.631 125.229 140.205 129.766C137.798 134.266 134.266 137.798 129.766 140.205C125.229 142.631 120.725 143.906 108.32 143.906H51.6797C39.2755 143.906 34.7708 142.631 30.2342 140.205C25.7337 137.798 22.2017 134.266 19.7948 129.766C17.3687 125.229 16.0938 120.725 16.0938 108.32V51.6797C16.0938 39.2755 17.3687 34.7708 19.7948 30.2342C22.2017 25.7337 25.7337 22.2017 30.2342 19.7948C34.7708 17.3687 39.2755 16.0938 51.6795 16.0938H108.32Z" stroke="url(#paint2_linear_1_623)" stroke-width="0.9375"/>
</g>
</g>
<defs>
<filter id="filter0_dd_1_623" x="10.625" y="13.4375" width="138.75" height="139.062" filterUnits="userSpaceOnUse" color-interpolation-filters="sRGB">
<feFlood flood-opacity="0" result="BackgroundImageFix"/>
<feColorMatrix in="SourceAlpha" type="matrix" values="0 0 0 0 0 0 0 0 0 0 0 0 0 0 0 0 0 0 127 0" result="hardAlpha"/>
<feOffset dy="0.9375"/>
<feGaussianBlur stdDeviation="1.5625"/>
<feColorMatrix type="matrix" values="0 0 0 0 0 0 0 0 0 0 0 0 0 0 0 0 0 0 0.15 0"/>
<feBlend mode="normal" in2="BackgroundImageFix" result="effect1_dropShadow_1_623"/>
<feColorMatrix in="SourceAlpha" type="matrix" values="0 0 0 0 0 0 0 0 0 0 0 0 0 0 0 0 0 0 127 0" result="hardAlpha"/>
<feOffset dy="3.125"/>
<feGaussianBlur stdDeviation="2.5"/>
<feColorMatrix type="matrix" values="0 0 0 0 0 0 0 0 0 0 0 0 0 0 0 0 0 0 0.15 0"/>
<feBlend mode="normal" in2="effect1_dropShadow_1_623" result="effect2_dropShadow_1_623"/>
<feBlend mode="normal" in="SourceGraphic" in2="effect2_dropShadow_1_623" result="shape"/>
</filter>
<filter id="filter1_ii_1_623" x="15.625" y="14.6875" width="128.75" height="129.688" filterUnits="userSpaceOnUse" color-interpolation-filters="sRGB">
<feFlood flood-opacity="0" result="BackgroundImageFix"/>
<feBlend mode="normal" in="SourceGraphic" in2="BackgroundImageFix" result="shape"/>
<feColorMatrix in="SourceAlpha" type="matrix" values="0 0 0 0 0 0 0 0 0 0 0 0 0 0 0 0 0 0 127 0" result="hardAlpha"/>
<feOffset dy="-1.875"/>
<feGaussianBlur stdDeviation="0.46875"/>
<feComposite in2="hardAlpha" operator="arithmetic" k2="-1" k3="1"/>
<feColorMatrix type="matrix" values="0 0 0 0 0 0 0 0 0 0 0 0 0 0 0 0 0 0 0.25 0"/>
<feBlend mode="normal" in2="shape" result="effect1_innerShadow_1_623"/>
<feColorMatrix in="SourceAlpha" type="matrix" values="0 0 0 0 0 0 0 0 0 0 0 0 0 0 0 0 0 0 127 0" result="hardAlpha"/>
<feOffset dy="-0.9375"/>
<feGaussianBlur stdDeviation="0.46875"/>
<feComposite in2="hardAlpha" operator="arithmetic" k2="-1" k3="1"/>
<feColorMatrix type="matrix" values="0 0 0 0 0 0 0 0 0 0 0 0 0 0 0 0 0 0 0.2 0"/>
<feBlend mode="normal" in2="effect1_innerShadow_1_623" result="effect2_innerShadow_1_623"/>
</filter>
<radialGradient id="paint0_radial_1_623" cx="0" cy="0" r="1" gradientUnits="userSpaceOnUse" gradientTransform="translate(80.0003 -2915.37) scale(16234.3)">
<stop stop-color="#4E5460"/>
<stop offset="0.94796" stop-color="#2B2F36"/>
</radialGradient>
<linearGradient id="paint1_linear_1_623" x1="3049.93" y1="-522.088" x2="3049.93" y2="9932.78" gradientUnits="userSpaceOnUse">
<stop stop-color="#F1D2B7"/>
<stop offset="1" stop-color="#D9B291"/>
</linearGradient>
<linearGradient id="paint2_linear_1_623" x1="6406.72" y1="11586.7" x2="6406.72" y2="-1200.04" gradientUnits="userSpaceOnUse">
<stop stop-color="white" stop-opacity="0"/>
<stop offset="0.34629" stop-color="white" stop-opacity="0.15"/>
<stop offset="0.56616" stop-color="white" stop-opacity="0.2"/>
<stop offset="1" stop-color="white" stop-opacity="0.4"/>
</linearGradient>
<clipPath id="clip0_1_623">
<rect width="160" height="160" fill="white"/>
</clipPath>
<clipPath id="clip1_1_623">
<rect width="160" height="160" fill="white"/>
</clipPath>
</defs>
</svg>
