<svg width="152" height="153" viewBox="0 0 152 153" fill="none" xmlns="http://www.w3.org/2000/svg">
<g clip-path="url(#clip0_1_784)">
<g clip-path="url(#clip1_1_784)">
<path d="M17.9433 12.7587L117.587 0.843323C128.44 -0.4562 138.301 7.19581 139.776 17.9838L139.818 18.3274L151.731 118.021C153.04 128.988 145.212 138.941 134.245 140.254L34.602 152.17C23.7488 153.469 13.8879 145.817 12.4127 135.029L0.457717 34.9921C-0.851069 24.0249 6.97656 14.0718 17.9433 12.7587Z" fill="#F0AD84"/>
<path d="M55.3046 71.3535C54.6118 72.3793 53.7065 73.2352 52.5888 73.9212C51.471 74.6071 50.1398 75.045 48.5953 75.2346C47.1881 75.4074 45.8596 75.3353 44.61 75.0184C43.3604 74.7015 42.2458 74.172 41.2663 73.43C40.2867 72.688 39.4754 71.7554 38.8323 70.6324C38.1892 69.5094 37.7803 68.2356 37.6054 66.8112C37.4263 65.3525 37.5171 64 37.878 62.7537C38.2389 61.5074 38.8144 60.4133 39.6046 59.4714C40.3948 58.5295 41.3632 57.7617 42.5097 57.1679C43.6562 56.5742 44.9245 56.1921 46.3146 56.0214C47.6017 55.8633 48.8953 55.9353 50.1954 56.2373C51.4954 56.5393 52.5853 57.0806 53.465 57.861L50.8456 61.2137C50.3642 60.698 49.7719 60.3439 49.0689 60.1515C48.3659 59.9591 47.6626 59.9061 46.959 59.9925C46.1867 60.0873 45.4962 60.3158 44.8874 60.678C44.2786 61.0402 43.7731 61.4985 43.3708 62.0531C42.9686 62.6077 42.6804 63.2397 42.5062 63.9492C42.332 64.6587 42.2944 65.4167 42.3934 66.2233C42.4946 67.0471 42.716 67.7864 43.0577 68.4412C43.3994 69.0961 43.8277 69.6402 44.3425 70.0734C44.8574 70.5067 45.4491 70.8216 46.1178 71.0182C46.7865 71.2149 47.4984 71.2668 48.2535 71.1741C49.1288 71.0666 49.8714 70.8012 50.4814 70.3779C51.0914 69.9546 51.56 69.4442 51.8873 68.8465L55.3046 71.3535Z" fill="#A54E34"/>
<path d="M75.6974 62.0819C75.8744 63.5235 75.7873 64.8712 75.4361 66.125C75.0849 67.3788 74.5195 68.4848 73.74 69.4428C72.9605 70.4008 71.9899 71.1863 70.8283 71.7993C69.6668 72.4122 68.3738 72.8062 66.9494 72.9811C65.525 73.1559 64.1794 73.086 62.9126 72.7712C61.6458 72.4564 60.5184 71.9285 59.5302 71.1875C58.5421 70.4465 57.726 69.5102 57.0818 68.3786C56.4377 67.247 56.0271 65.9604 55.8501 64.5188C55.671 63.0601 55.7582 61.7124 56.1115 60.4757C56.4648 59.2391 57.0328 58.1546 57.8155 57.2223C58.5982 56.2901 59.5671 55.5265 60.7222 54.9318C61.8773 54.337 63.167 53.9522 64.5914 53.7773C66.0158 53.6024 67.3647 53.6633 68.6379 53.9599C69.9112 54.2564 71.0403 54.7624 72.0253 55.4776C73.0102 56.1928 73.8237 57.1077 74.4657 58.2221C75.1078 59.3366 75.5183 60.6232 75.6974 62.0819ZM70.9866 62.6603C70.8897 61.8709 70.6704 61.1488 70.3286 60.4939C69.9869 59.839 69.5587 59.295 69.0438 58.8617C68.529 58.4285 67.9324 58.1098 67.2541 57.9056C66.5758 57.7015 65.8505 57.6468 65.0782 57.7416C64.3059 57.8364 63.6197 58.0644 63.0195 58.4256C62.4193 58.7867 61.9175 59.2402 61.5142 59.7862C61.1109 60.3322 60.827 60.9637 60.6624 61.6808C60.4979 62.3978 60.4641 63.151 60.561 63.9404C60.6621 64.7642 60.8841 65.5078 61.2268 66.1712C61.5696 66.8346 61.9989 67.3873 62.5148 67.8291C63.0307 68.271 63.6235 68.5945 64.2933 68.7997C64.963 69.0049 65.684 69.0601 66.4563 68.9653C67.2286 68.8704 67.9148 68.6425 68.515 68.2813C69.1152 67.9202 69.6164 67.4623 70.0187 66.9078C70.4209 66.3532 70.7081 65.7126 70.8802 64.9859C71.0523 64.2593 71.0878 63.4841 70.9866 62.6603Z" fill="#A54E34"/>
<path d="M96.2687 59.5821C96.4647 61.1782 96.3378 62.5917 95.8879 63.8228C95.4381 65.0539 94.7742 66.1023 93.8962 66.9678C93.0183 67.8334 91.9916 68.5169 90.8164 69.0183C89.6411 69.5198 88.4271 69.8474 87.1743 70.0012L80.3783 70.8356L78.1405 52.6101L84.7305 51.801C86.0176 51.6429 87.306 51.6371 88.5957 51.7837C89.8854 51.9302 91.062 52.2909 92.1255 52.8658C93.1891 53.4407 94.0928 54.2748 94.8368 55.3681C95.5807 56.4613 96.058 57.866 96.2687 59.5821ZM91.6866 60.1447C91.5602 59.1151 91.288 58.2818 90.8701 57.645C90.4523 57.0082 89.9397 56.5224 89.3324 56.1876C88.7251 55.8528 88.0549 55.6433 87.3216 55.5591C86.5883 55.475 85.8441 55.4793 85.089 55.572L82.9009 55.8406L84.2095 66.4979L86.2946 66.2419C87.084 66.145 87.8324 65.9616 88.5396 65.6919C89.2469 65.4221 89.8541 65.0471 90.3612 64.5667C90.8684 64.0864 91.2472 63.4824 91.4975 62.7549C91.7479 62.0273 91.8109 61.1573 91.6866 60.1447Z" fill="#A54E34"/>
<path d="M100.946 68.3102L98.7084 50.0847L110.962 48.5802L111.42 52.3128L103.414 53.2958L103.835 56.7195L111.403 55.7903L111.836 59.317L104.268 60.2462L104.732 64.0304L113.201 62.9905L113.663 66.7488L100.946 68.3102Z" fill="#A54E34"/>
<path d="M34.3842 102.613L32.1464 84.3879L44.3997 82.8834L44.858 86.6161L36.8521 87.599L37.2725 91.0228L44.8408 90.0935L45.2738 93.6202L37.7056 94.5495L38.1702 98.3336L46.6394 97.2937L47.1009 101.052L34.3842 102.613Z" fill="#A54E34"/>
<path d="M63.0096 99.0987L61.1544 95.6943L54.101 96.5604L53.2018 100.303L48.4137 100.891L53.8214 81.7265L58.0946 81.2019L67.9006 98.4981L63.0096 99.0987ZM56.4781 86.339L54.9294 92.8788L59.5115 92.3162L56.4781 86.339Z" fill="#A54E34"/>
<path d="M78.0344 83.5618C77.5979 83.1276 77.0576 82.8064 76.4136 82.598C75.7696 82.3896 75.1644 82.3202 74.5981 82.3898C74.3063 82.4256 74.0135 82.4877 73.7195 82.576C73.4254 82.6644 73.1673 82.7963 72.9449 82.9716C72.7226 83.147 72.5441 83.3606 72.4095 83.6123C72.2749 83.864 72.2297 84.17 72.274 84.5304C72.3119 84.8393 72.4079 85.0888 72.5619 85.279C72.7159 85.4691 72.9268 85.6261 73.1946 85.75C73.4624 85.8739 73.7758 85.9791 74.1349 86.0657C74.4939 86.1523 74.8964 86.2379 75.3423 86.3225C75.9854 86.4526 76.6568 86.6009 77.3567 86.7676C78.0565 86.9343 78.7063 87.1898 79.3061 87.5343C79.9058 87.8787 80.4233 88.3334 80.8585 88.8984C81.2937 89.4634 81.5671 90.2007 81.6788 91.1102C81.8073 92.1571 81.7254 93.086 81.4331 93.8971C81.1407 94.7082 80.699 95.4027 80.108 95.9804C79.5169 96.5582 78.8157 97.0188 78.0043 97.3623C77.1929 97.7058 76.341 97.9324 75.4486 98.042C74.1443 98.2021 72.855 98.1296 71.5807 97.8244C70.3064 97.5192 69.2143 96.9957 68.3045 96.2538L70.8273 92.9652C71.3409 93.4596 71.9851 93.8465 72.7597 94.1259C73.5344 94.4053 74.2821 94.5008 75.0029 94.4123C75.329 94.3723 75.6422 94.299 75.9427 94.1924C76.2432 94.0858 76.4998 93.9411 76.7125 93.7582C76.9252 93.5753 77.0844 93.3467 77.1901 93.0724C77.2958 92.7981 77.3265 92.4808 77.2823 92.1204C77.2401 91.7772 77.1185 91.4959 76.9174 91.2768C76.7163 91.0576 76.4448 90.8688 76.1031 90.7104C75.7614 90.552 75.3446 90.4203 74.8526 90.3152C74.3607 90.2101 73.8028 90.1001 73.1789 89.985C72.5723 89.8679 71.9742 89.7149 71.3849 89.5259C70.7955 89.337 70.2573 89.0677 69.7701 88.7182C69.283 88.3686 68.8711 87.9227 68.5345 87.3805C68.1979 86.8382 67.9791 86.1552 67.8779 85.3315C67.7536 84.3189 67.8531 83.427 68.1765 82.6556C68.4999 81.8843 68.9678 81.2258 69.5802 80.6803C70.1926 80.1347 70.9061 79.7031 71.7207 79.3853C72.5352 79.0675 73.3716 78.856 74.2296 78.7506C75.2593 78.6242 76.3337 78.6839 77.4526 78.9298C78.5716 79.1756 79.5796 79.618 80.4768 80.2569L78.0344 83.5618Z" fill="#A54E34"/>
<path d="M85.9202 96.2856L83.6824 78.0601L88.1101 77.5164L90.3479 95.7419L85.9202 96.2856Z" fill="#A54E34"/>
<path d="M94.7498 95.2015L92.512 76.976L104.765 75.4714L105.224 79.2041L97.2177 80.1871L97.6381 83.6108L105.206 82.6815L105.639 86.2082L98.0712 87.1375L98.5358 90.9216L107.005 89.8817L107.466 93.6401L94.7498 95.2015Z" fill="#A54E34"/>
<path d="M120.775 92.0059L115.949 85.256L114.455 85.4393L115.344 92.6729L111.019 93.2039L108.781 74.9783L115.732 74.1249C116.607 74.0175 117.472 74.0027 118.326 74.0807C119.181 74.1587 119.964 74.3717 120.678 74.7196C121.391 75.0675 121.989 75.569 122.47 76.2242C122.951 76.8794 123.256 77.7304 123.384 78.7772C123.536 80.0128 123.329 81.0922 122.763 82.0153C122.197 82.9384 121.344 83.6528 120.204 84.1586L125.924 91.3738L120.775 92.0059ZM119.043 79.3886C118.99 78.9596 118.858 78.6231 118.645 78.3792C118.432 78.1354 118.175 77.9579 117.874 77.8468C117.573 77.7357 117.243 77.676 116.885 77.6677C116.527 77.6594 116.185 77.6753 115.859 77.7153L113.516 78.0029L114.038 82.2504L116.123 81.9944C116.483 81.9501 116.849 81.8748 117.219 81.7684C117.589 81.6619 117.919 81.5125 118.209 81.3202C118.499 81.1278 118.725 80.8736 118.886 80.5576C119.048 80.2416 119.1 79.852 119.043 79.3886Z" fill="#A54E34"/>
</g>
</g>
<defs>
<clipPath id="clip0_1_784">
<rect width="152" height="153" fill="white"/>
</clipPath>
<clipPath id="clip1_1_784">
<rect width="152" height="153" fill="white"/>
</clipPath>
</defs>
</svg>
