<svg width="155" height="153" viewBox="0 0 155 153" fill="none" xmlns="http://www.w3.org/2000/svg">
<g clip-path="url(#clip0_1_799)">
<g clip-path="url(#clip1_1_799)">
<path d="M70.4472 3.11216C74.2145 -1.03739 80.7391 -1.03739 84.5064 3.11216L89.1046 8.17782C91.7003 11.0353 95.7677 12.0378 99.3936 10.7135L105.819 8.36484C111.084 6.44148 116.861 9.47272 118.268 14.8982L119.986 21.5198C120.955 25.2564 124.091 28.0341 127.918 28.5458L134.699 29.4525C140.255 30.1958 143.961 35.5643 142.686 41.022L141.129 47.6835C140.251 51.4429 141.737 55.3589 144.887 57.5908L150.47 61.5438C155.044 64.7839 155.83 71.2603 152.164 75.5L147.69 80.6749C145.165 83.595 144.66 87.7531 146.413 91.1935L149.518 97.2882C152.063 102.283 149.75 108.382 144.533 110.433L138.166 112.936C134.573 114.349 132.193 117.796 132.146 121.656L132.064 128.496C131.995 134.101 127.112 138.427 121.539 137.818L114.738 137.076C110.901 136.657 107.191 138.603 105.356 142L102.103 148.018C99.4383 152.949 93.1036 154.51 88.4523 151.382L82.7756 147.565C79.5713 145.411 75.3823 145.411 72.178 147.565L66.5013 151.382C61.85 154.51 55.5154 152.949 52.8503 148.018L49.5975 142C47.7622 138.604 44.0528 136.657 40.2152 137.076L33.4143 137.818C27.8421 138.427 22.9582 134.101 22.8898 128.496L22.8072 121.656C22.7607 117.796 20.3804 114.349 16.7878 112.936L10.4208 110.433C5.20366 108.382 2.89083 102.283 5.43533 97.2882L8.54094 91.1935C10.2936 87.7531 9.7885 83.595 7.26395 80.6749L2.78924 75.5C-0.876539 71.2603 -0.090404 64.7839 4.48399 61.5438L10.0667 57.5908C13.2169 55.3589 14.7028 51.4429 13.8246 47.6835L12.2675 41.022C10.9924 35.5643 14.699 30.1958 20.2551 29.4525L27.036 28.5458C30.8622 28.0341 33.9982 25.2564 34.9676 21.5198L36.6851 14.8982C38.0922 9.47272 43.8695 6.44148 49.1342 8.36484L55.56 10.7135C59.1859 12.0378 63.2533 11.0353 65.849 8.17782L70.4472 3.11216Z" fill="#DBEBEA"/>
<path d="M59.1581 38.9563C58.9577 40.374 57.6461 41.3609 56.229 41.1604C54.812 40.9599 53.8254 39.6477 54.0259 38.23C54.2263 36.8123 55.5379 35.8253 56.955 36.0259C58.372 36.2264 59.3586 37.5386 59.1581 38.9563Z" fill="#384C75"/>
<path d="M87.5631 40.8128C86.624 41.0473 85.6062 41.0473 84.5105 40.8916C83.4927 40.7349 82.5536 40.4216 81.7713 39.9517C80.9889 39.4827 80.2844 38.8562 79.7365 38.1518C79.1887 37.4473 78.7966 36.5872 78.6408 35.7262C78.4842 34.8651 78.4054 33.8474 78.562 32.8307C78.7187 31.813 79.1099 30.874 79.5799 30.0918C80.0489 29.3086 80.6756 28.6829 81.458 28.1352C82.2413 27.5874 83.0236 27.2741 83.9627 27.1175C84.9017 26.9608 85.8417 26.9608 86.8586 27.1175C87.7976 27.2741 88.6588 27.5874 89.5199 28.0564C90.3811 28.5263 91.0068 29.1519 91.4768 29.8564L88.9721 31.6563C88.7376 31.1873 88.3454 30.7953 87.9543 30.4829C87.4852 30.1696 87.0152 30.013 86.5452 29.9351C85.9974 29.8564 85.4495 29.8564 84.9805 30.013C84.5105 30.1696 84.0415 30.3263 83.6493 30.6396C83.2582 30.9519 82.9448 31.343 82.6324 31.813C82.3191 32.2829 82.1625 32.7519 82.0846 33.3784C82.0058 34.0041 82.0058 34.5518 82.0846 35.0218C82.1625 35.4917 82.397 36.0394 82.6324 36.4306C82.867 36.8217 83.2582 37.2128 83.6493 37.4473C84.0415 37.6828 84.5893 37.9173 85.1372 37.9951C85.7629 38.0739 86.3107 38.0739 86.8586 37.9173C87.4064 37.7606 87.7976 37.5261 88.1109 37.135L89.9899 39.5606C89.2854 40.1084 88.5021 40.5783 87.5631 40.8128Z" fill="#384C75"/>
<path d="M106.4 42.295C105.837 43.2742 105.194 44.0089 104.469 44.5802C103.745 45.1515 102.86 45.5594 101.975 45.8049C101.09 46.0495 100.125 46.0495 99.1583 45.8861C98.1929 45.7227 97.2275 45.397 96.3422 44.8257C95.3768 44.2534 94.6525 43.601 94.0083 42.8663C93.365 42.1317 92.9629 41.2337 92.7218 40.3366C92.4797 39.4386 92.3997 38.5406 92.5607 37.5614C92.7218 36.5822 93.0429 35.602 93.5261 34.705C94.0893 33.7248 94.7326 32.9911 95.4568 32.4189C96.2621 31.8476 97.0664 31.4397 97.9518 31.1951C98.8371 30.9505 99.7215 30.9505 100.688 31.1139C101.653 31.2763 102.619 31.603 103.504 32.1743C104.469 32.7456 105.194 33.399 105.837 34.1337C106.481 34.8683 106.883 35.6842 107.205 36.5822C107.446 37.4792 107.527 38.3772 107.446 39.3564C107.366 40.3366 106.883 41.3158 106.4 42.295ZM103.262 40.5C103.584 40.0099 103.745 39.4386 103.826 38.8673C103.906 38.296 103.906 37.806 103.826 37.3168C103.745 36.8267 103.504 36.3367 103.182 35.9287C102.86 35.5208 102.457 35.1129 101.975 34.8683C101.492 34.5416 100.929 34.3782 100.446 34.3782C99.9635 34.2961 99.4003 34.3782 98.9172 34.5416C98.434 34.705 97.9518 34.9495 97.5496 35.2763C97.1465 35.602 96.7443 36.0921 96.5032 36.5822C96.1811 37.1535 96.0201 37.6426 95.859 38.2139C95.779 38.7852 95.779 39.2752 95.859 39.7653C95.94 40.2545 96.1811 40.7445 96.5032 41.1525C96.8253 41.5604 97.2275 41.9683 97.7097 42.2138C98.1929 42.5396 98.7561 42.703 99.2393 42.703C99.7215 42.7851 100.285 42.703 100.768 42.5396C101.251 42.3772 101.733 42.1317 102.135 41.8049C102.539 41.4792 103.021 40.9891 103.262 40.5Z" fill="#384C75"/>
<path d="M108.632 56.1206L112.279 46.3598V46.2802L105.38 51.8002L103.477 49.3207L114.103 41L116.402 43.9599L112.675 53.6402V53.7198L119.574 48.1998L121.477 50.6803L110.852 59L108.632 56.1206Z" fill="#384C75"/>
<path d="M113.549 67.1978L112.477 64.0681L124.189 55L125.343 58.5309L116.848 64.4691V64.549H127.322L128.477 68L113.549 67.1978Z" fill="#384C75"/>
<path d="M115.477 72.2436L129.314 72L129.477 81.2682L126.628 81.35L126.546 75.2518L123.942 75.3337L124.024 81.1064L121.337 81.1873L121.256 75.4145L118.407 75.4964L118.488 81.9191L115.64 82L115.477 72.2436Z" fill="#384C75"/>
<path d="M113.506 89.9798L119.447 88.6961L119.764 87.6538L114.615 86.049L115.566 83L128.477 86.9317L126.971 91.9057C126.813 92.5471 126.575 93.1086 126.258 93.6702C125.942 94.2317 125.545 94.7134 125.149 95.1144C124.675 95.5153 124.199 95.7567 123.645 95.9163C123.09 96.0769 122.377 95.9971 121.664 95.7567C120.793 95.5153 120.16 95.0346 119.684 94.3923C119.209 93.7509 118.971 92.948 118.971 91.9855L112.477 93.6702L113.506 89.9798ZM122.457 92.6278C122.773 92.7077 123.012 92.7077 123.249 92.6278C123.486 92.5471 123.645 92.4673 123.803 92.2259C123.962 91.9855 124.12 91.825 124.199 91.5846C124.279 91.3442 124.436 91.1029 124.436 90.8625L124.912 89.1779L121.902 88.2952L121.427 89.8192C121.347 90.0605 121.269 90.3807 121.269 90.6221V91.424C121.347 91.6644 121.427 91.9057 121.586 92.1461C121.744 92.3865 122.14 92.5471 122.457 92.6278Z" fill="#384C75"/>
<path d="M117.319 105.408L108.477 99.647L110.293 97L119.135 102.761L121.187 99.647L123.477 101.126L117.476 110L115.187 108.521L117.319 105.408Z" fill="#384C75"/>
<path d="M95.2322 110.601L98.2224 115.444L102.63 112.619L99.6392 107.775L102.394 106L109.477 117.623L106.722 119.399L104.046 115.041L99.6392 117.866L102.315 122.224L99.5609 124L92.4768 112.376L95.2322 110.601Z" fill="#384C75"/>
<path d="M90.3796 113L93.4768 125.891L84.883 128L84.2641 125.344L89.9157 124.016L89.2959 121.594L83.9542 122.844L83.3353 120.344L88.677 119.094L88.0572 116.437L82.0966 117.844L81.4768 115.187L90.3796 113Z" fill="#384C75"/>
<path d="M80.2044 115L80.4768 128.919L76.7492 129L76.4768 115.081L80.2044 115Z" fill="#384C75"/>
<path d="M64.9543 113.109C65.8805 112.952 66.8845 112.952 67.9652 113.188C68.9691 113.424 69.8186 113.816 70.5903 114.286C71.362 114.835 71.98 115.463 72.4427 116.17C72.9063 116.876 73.2153 117.738 73.3698 118.68C73.5234 119.622 73.5234 120.563 73.2921 121.583C73.0608 122.603 72.6749 123.545 72.1346 124.251C71.5942 125.036 70.9761 125.585 70.2044 126.056C69.4318 126.526 68.5833 126.761 67.6562 126.918C66.7299 127.075 65.8037 126.997 64.7998 126.761C63.8736 126.526 63.0241 126.212 62.2524 125.663C61.4807 125.114 60.8627 124.486 60.4768 123.78L63.0241 122.133C63.2564 122.603 63.5645 122.996 63.9513 123.309C64.4139 123.623 64.7998 123.858 65.3401 123.937C65.8805 124.094 66.4209 124.094 66.8845 124.015C67.348 123.937 67.8107 123.701 68.2742 123.466C68.6601 123.152 69.0459 122.839 69.2782 122.368C69.5863 121.897 69.7408 121.426 69.8954 120.877C70.0499 120.328 70.0499 119.7 69.9722 119.23C69.8954 118.68 69.7408 118.209 69.5095 117.817C69.2782 117.425 68.9691 117.033 68.5833 116.719C68.1965 116.405 67.7339 116.248 67.1935 116.091C66.5754 115.933 66.035 115.933 65.4947 116.091C64.9543 116.248 64.5685 116.483 64.1826 116.797L62.4838 114.208C63.1787 113.659 64.0281 113.267 64.9543 113.109Z" fill="#384C75"/>
<path d="M47.2794 115.572L53.7902 107L56.4768 108.904L49.9651 117.476L53.1395 119.778L51.4303 122L42.4768 115.572L44.186 113.349L47.2794 115.572Z" fill="#384C75"/>
<path d="M36.5112 96.3931C37.4127 95.7529 38.3142 95.3526 39.2971 95.1923C40.2801 94.9514 41.1816 94.9514 42.083 95.1117C42.9845 95.272 43.885 95.6723 44.705 96.2328C45.5239 96.7934 46.2614 97.5143 46.9164 98.3955C47.5724 99.2767 47.9819 100.158 48.2274 101.119C48.4739 102.08 48.5554 102.961 48.3914 103.922C48.2274 104.803 47.9004 105.684 47.4084 106.485C46.9164 107.285 46.1799 108.006 45.2784 108.647C44.377 109.287 43.394 109.688 42.4925 109.848C41.5096 110.008 40.6081 110.089 39.7066 109.848C38.8052 109.688 37.9862 109.287 37.1672 108.727C36.3472 108.166 35.6098 107.445 35.0363 106.565C34.3813 105.684 33.9718 104.803 33.7253 103.842C33.4798 102.881 33.3983 102 33.5623 101.119C33.7253 100.238 33.9718 99.3564 34.5453 98.5558C34.8732 97.7552 35.5282 97.0343 36.5112 96.3931ZM38.5597 99.2767C38.0687 99.5973 37.6582 99.9976 37.3312 100.478C37.0032 100.958 36.8392 101.439 36.6752 101.919C36.5937 102.4 36.5937 102.881 36.6752 103.442C36.7577 104.002 37.0032 104.482 37.3312 104.882C37.6582 105.363 38.0687 105.684 38.5597 106.004C39.0516 106.245 39.4611 106.405 40.0346 106.485C40.5266 106.565 41.1001 106.485 41.5911 106.405C42.083 106.324 42.6565 106.004 43.1475 105.684C43.6395 105.363 44.049 104.963 44.377 104.482C44.705 104.002 44.9505 103.521 45.032 103.04C45.1145 102.56 45.1145 102.08 45.032 101.519C44.9505 100.958 44.705 100.558 44.377 100.077C44.049 99.5973 43.6395 99.2767 43.1475 98.9561C42.6565 98.7161 42.247 98.5558 41.6735 98.4761C41.1001 98.3955 40.6081 98.4761 40.1161 98.5558C39.6251 98.6355 39.0516 98.9561 38.5597 99.2767Z" fill="#384C75"/>
<path d="M37.2775 80C37.9366 80 38.5137 80.1683 39.0087 80.4204C39.5038 80.6734 40.0809 81.0937 40.493 81.5978C40.905 82.1875 41.2351 82.8599 41.4001 83.869C41.5642 85.0464 41.4821 86.1401 40.9871 86.9809C40.493 87.9063 39.8329 88.5796 38.9267 89L37.4425 86.1401C37.7716 85.9718 38.0196 85.8034 38.2666 85.4667C38.4317 85.2147 38.5137 84.878 38.4317 84.5423C38.3496 83.9536 38.1016 83.6169 37.6895 83.5323C37.2775 83.4486 36.7824 83.4486 36.1233 83.5323L27.0539 85.131L26.4768 81.6825L35.5462 80.0847C36.1233 80 36.7004 80 37.2775 80Z" fill="#384C75"/>
<path d="M30.7873 67.0468C31.5916 67.1241 32.2357 67.3578 32.7179 67.6678C33.201 67.9788 33.6031 68.4453 33.9252 68.989C34.1663 69.5328 34.4074 70.0765 34.4884 70.6976C34.5684 71.3195 34.5684 72.0188 34.4884 72.718L34.3273 74.271L39.4768 74.8148L39.1547 78L25.4768 76.5242L26.04 71.7078C26.12 71.0086 26.2811 70.3093 26.4421 69.6883C26.6841 69.0663 26.9252 68.5226 27.3273 68.1343C27.7295 67.7461 28.2126 67.3578 28.6947 67.2023C29.3389 66.9686 29.9821 66.9686 30.7873 67.0468ZM30.4652 70.1538C30.1432 70.1538 29.9021 70.1538 29.661 70.232C29.419 70.3093 29.2579 70.4648 29.0978 70.6976C28.9368 70.9313 28.8558 71.164 28.7757 71.3968C28.6947 71.7078 28.6947 71.9406 28.6147 72.2515L28.4537 73.65L31.6716 73.961L31.8326 72.6398C31.8326 72.3288 31.8326 72.0188 31.8326 71.7851C31.8326 71.475 31.7526 71.2413 31.6716 71.0085C31.5916 70.7758 31.4305 70.6203 31.1894 70.4648C31.0284 70.3093 30.7063 70.232 30.4652 70.1538Z" fill="#384C75"/>
<path d="M45.1588 57.9513C44.9993 58.8097 44.6803 59.7476 44.2019 60.6846C43.7244 61.6216 43.1667 62.481 42.4495 63.1053C41.7323 63.7306 41.0151 64.2773 40.1384 64.5899C39.2617 64.9016 38.386 65.058 37.4291 64.9803C36.4731 64.9803 35.5172 64.6676 34.5613 64.2773C33.6053 63.8083 32.8079 63.2616 32.1709 62.5587C31.533 61.8557 31.0555 61.075 30.8158 60.2157C30.577 59.3563 30.4175 58.498 30.4978 57.56C30.577 56.623 30.8158 55.686 31.2942 54.8267C31.7727 53.8897 32.3304 53.0304 33.0476 52.406C33.7638 51.7807 34.481 51.234 35.1982 51L36.4731 53.812C35.9956 53.9674 35.5172 54.2023 35.119 54.514C34.7207 54.9053 34.3225 55.3733 34.0035 55.92C33.7638 56.4667 33.6053 56.9357 33.6053 57.4823C33.6053 58.029 33.6846 58.498 33.8441 58.966C34.0035 59.435 34.3225 59.903 34.7207 60.2943C35.119 60.6846 35.5965 60.9973 36.1551 61.2313C36.7128 61.4653 37.2706 61.6216 37.8283 61.6993C38.386 61.778 38.8635 61.6993 39.4212 61.5439C39.8997 61.3876 40.3781 61.1527 40.7763 60.7623C41.1746 60.372 41.5728 59.903 41.8116 59.3563C41.971 59.0446 42.1305 58.6534 42.2107 58.3416C42.29 58.029 42.3693 57.7163 42.3693 57.4046L40.1384 56.389L39.023 58.6534L36.6326 57.56L39.023 52.64L45.4768 55.6083C45.3975 56.3104 45.3173 57.092 45.1588 57.9513Z" fill="#384C75"/>
</g>
</g>
<defs>
<clipPath id="clip0_1_799">
<rect width="155" height="153" fill="white"/>
</clipPath>
<clipPath id="clip1_1_799">
<rect width="155" height="153" fill="white"/>
</clipPath>
</defs>
</svg>
