<svg width="18" height="14" viewBox="0 0 18 14" fill="none" xmlns="http://www.w3.org/2000/svg">
<g clip-path="url(#clip0_1_600)">
<g clip-path="url(#clip1_1_600)">
<path fill-rule="evenodd" clip-rule="evenodd" d="M0 0H25.6503V1.03847H0V0ZM0 2.07694H25.6503V3.11542H0V2.07694ZM0 4.15389H25.6503V5.19236H0V4.15389ZM0 6.23083H25.6503V7.2693H0V6.23083ZM0 8.30777H25.6503V9.34625H0V8.30777ZM0 10.3847H25.6503V11.4232H0V10.3847ZM0 12.4617H25.6503V13.5001H0V12.4617Z" fill="#BD3D44"/>
<path fill-rule="evenodd" clip-rule="evenodd" d="M0 1.03847H25.6503V2.07694H0V1.03847ZM0 3.11541H25.6503V4.15389H0V3.11541ZM0 5.19236H25.6503V6.23083H0V5.19236ZM0 7.2693H25.6503V8.30777H0V7.2693ZM0 9.34624H25.6503V10.3847H0V9.34624ZM0 11.4232H25.6503V12.4617H0V11.4232Z" fill="white"/>
<path fill-rule="evenodd" clip-rule="evenodd" d="M0 0H10.26V7.26917H0V0Z" fill="#192F5D"/>
<path fill-rule="evenodd" clip-rule="evenodd" d="M0.85505 0.311132L0.94839 0.598429H1.2505L1.00608 0.776012L1.09945 1.06331L0.855023 0.885753L0.610652 1.06331L0.703992 0.776012L0.459595 0.598429H0.761684L0.85505 0.311132ZM2.56504 0.311132L2.65841 0.598429H2.96052L2.7161 0.776012L2.80946 1.06331L2.56504 0.885753L2.32067 1.06331L2.41401 0.776012L2.16961 0.598429H2.4717L2.56504 0.311132ZM4.27511 0.311132L4.36845 0.598429H4.67057L4.42614 0.776012L4.51951 1.06331L4.27511 0.885753L4.03071 1.06331L4.12405 0.776012L3.87966 0.598429H4.18177L4.27511 0.311132ZM5.98508 0.311132L6.07842 0.598429H6.38051L6.13611 0.776012L6.22945 1.06331L5.98508 0.885753L5.74065 1.06331L5.83402 0.776012L5.58959 0.598429H5.89171L5.98508 0.311132ZM7.69512 0.311132L7.78846 0.598429H8.09057L7.84615 0.776012L7.93952 1.06331L7.69509 0.885753L7.45072 1.06331L7.54406 0.776012L7.29967 0.598429H7.60175L7.69512 0.311132ZM9.40516 0.311132L9.4985 0.598429H9.80062L9.5562 0.776012L9.64956 1.06331L9.40516 0.885753L9.16074 1.06331L9.25413 0.776012L9.00971 0.598429H9.31182L9.40516 0.311132ZM1.71009 1.03808L1.80342 1.32537H2.10554L1.86112 1.50293L1.95451 1.79025L1.71009 1.6127L1.46569 1.79025L1.55903 1.50293L1.31463 1.32537H1.61675L1.71009 1.03808ZM3.42005 1.03808L3.51339 1.32537H3.81548L3.57108 1.50293L3.66442 1.79025L3.42005 1.6127L3.17563 1.79025L3.26899 1.50293L3.02457 1.32537H3.32668L3.42005 1.03808ZM5.13009 1.03808L5.22343 1.32537H5.52555L5.28112 1.50293L5.37449 1.79025L5.13007 1.6127L4.8857 1.79025L4.97904 1.50293L4.73464 1.32537H5.03673L5.13009 1.03808ZM6.84014 1.03808L6.93348 1.32537H7.23559L6.99117 1.50293L7.08454 1.79025L6.84014 1.6127L6.59571 1.79025L6.68913 1.50293L6.44471 1.32537H6.74682L6.84014 1.03808ZM8.5501 1.03808L8.64344 1.32537H8.94553L8.70113 1.50293L8.79447 1.79025L8.5501 1.6127L8.30568 1.79025L8.39905 1.50293L8.15462 1.32537H8.45674L8.5501 1.03808ZM0.85505 1.76499L0.94839 2.05229H1.2505L1.00608 2.22987L1.09945 2.51717L0.855023 2.33961L0.610652 2.51717L0.703992 2.22987L0.459595 2.05229H0.761684L0.85505 1.76499ZM2.56504 1.76499L2.65841 2.05229H2.96052L2.7161 2.22987L2.80946 2.51717L2.56504 2.33961L2.32067 2.51717L2.41401 2.22987L2.16961 2.05229H2.4717L2.56504 1.76499ZM4.27511 1.76499L4.36845 2.05229H4.67057L4.42614 2.22987L4.51951 2.51717L4.27511 2.33961L4.03071 2.51717L4.12405 2.22987L3.87966 2.05229H4.18177L4.27511 1.76499ZM5.98508 1.76499L6.07842 2.05229H6.38051L6.13611 2.22987L6.22945 2.51717L5.98508 2.33961L5.74065 2.51717L5.83402 2.22987L5.58959 2.05229H5.89171L5.98508 1.76499ZM7.69512 1.76499L7.78846 2.05229H8.09057L7.84615 2.22987L7.93952 2.51717L7.69509 2.33961L7.45072 2.51717L7.54406 2.22987L7.29967 2.05229H7.60175L7.69512 1.76499ZM9.40516 1.76499L9.4985 2.05229H9.80062L9.5562 2.22987L9.64956 2.51717L9.40516 2.33961L9.16074 2.51717L9.25413 2.22987L9.00971 2.05229H9.31182L9.40516 1.76499ZM1.71009 2.49191L1.80342 2.77923H2.10554L1.86112 2.95679L1.95451 3.24411L1.71009 3.06656L1.46569 3.24411L1.55903 2.95679L1.31463 2.77923H1.61675L1.71009 2.49191ZM3.42005 2.49191L3.51339 2.77923H3.81548L3.57108 2.95679L3.66442 3.24411L3.42005 3.06656L3.17563 3.24411L3.26899 2.95679L3.02457 2.77923H3.32668L3.42005 2.49191ZM5.13009 2.49191L5.22343 2.77923H5.52555L5.28112 2.95679L5.37449 3.24411L5.13007 3.06656L4.8857 3.24411L4.97904 2.95679L4.73464 2.77923H5.03673L5.13009 2.49191ZM6.84014 2.49191L6.93348 2.77923H7.23559L6.99117 2.95679L7.08454 3.24411L6.84014 3.06656L6.59571 3.24411L6.68911 2.95679L6.44468 2.77923H6.7468L6.84014 2.49191ZM8.5501 2.49191L8.64344 2.77923H8.94553L8.70113 2.95679L8.79447 3.24411L8.5501 3.06656L8.30568 3.24411L8.39905 2.95679L8.15462 2.77923H8.45674L8.5501 2.49191ZM0.85505 3.21885L0.94839 3.50615H1.2505L1.00608 3.68373L1.09945 3.97103L0.855023 3.79347L0.610652 3.97103L0.703992 3.68373L0.459595 3.50615H0.761684L0.85505 3.21885ZM2.56504 3.21885L2.65841 3.50615H2.96052L2.7161 3.68373L2.80946 3.97103L2.56504 3.79347L2.32067 3.97103L2.41401 3.68373L2.16961 3.50615H2.4717L2.56504 3.21885ZM4.27511 3.21885L4.36845 3.50615H4.67057L4.42614 3.68373L4.51951 3.97103L4.27511 3.79347L4.03071 3.97103L4.12405 3.68373L3.87966 3.50615H4.18177L4.27511 3.21885ZM5.98508 3.21885L6.07842 3.50615H6.38051L6.13611 3.68373L6.22945 3.97103L5.98508 3.79347L5.74065 3.97103L5.83402 3.68373L5.58959 3.50615H5.89171L5.98508 3.21885ZM7.69512 3.21885L7.78846 3.50615H8.09057L7.84615 3.68373L7.93952 3.97103L7.69509 3.79347L7.45072 3.97103L7.54406 3.68373L7.29967 3.50615H7.60175L7.69512 3.21885ZM9.40516 3.21885L9.4985 3.50615H9.80062L9.5562 3.68373L9.64956 3.97103L9.40516 3.79347L9.16074 3.97103L9.25413 3.68373L9.00971 3.50615H9.31182L9.40516 3.21885ZM1.71009 3.94577L1.80342 4.23309H2.10554L1.86112 4.41065L1.95451 4.69797L1.71009 4.52042L1.46569 4.69797L1.55903 4.41065L1.31463 4.23309H1.61675L1.71009 3.94577ZM3.42005 3.94577L3.51339 4.23309H3.81548L3.57108 4.41065L3.66442 4.69797L3.42005 4.52042L3.17563 4.69797L3.26899 4.41065L3.02457 4.23309H3.32668L3.42005 3.94577ZM5.13009 3.94577L5.22343 4.23309H5.52555L5.28112 4.41065L5.37449 4.69797L5.13007 4.52042L4.8857 4.69797L4.97904 4.41065L4.73464 4.23309H5.03673L5.13009 3.94577ZM6.84014 3.94577L6.93348 4.23309H7.23559L6.99117 4.41065L7.08454 4.69797L6.84014 4.52042L6.59571 4.69797L6.68911 4.41065L6.44468 4.23309H6.7468L6.84014 3.94577ZM8.5501 3.94577L8.64344 4.23309H8.94553L8.70113 4.41065L8.79447 4.69797L8.5501 4.52042L8.30568 4.69797L8.39905 4.41065L8.15462 4.23309H8.45674L8.5501 3.94577Z" fill="white"/>
<path fill-rule="evenodd" clip-rule="evenodd" d="M0.85505 4.67271L0.94839 4.96001H1.2505L1.00608 5.13759L1.09945 5.42489L0.855023 5.24733L0.610652 5.42489L0.703992 5.13759L0.459595 4.96001H0.761684L0.85505 4.67271ZM2.56504 4.67271L2.65841 4.96001H2.96052L2.7161 5.13759L2.80946 5.42489L2.56504 5.24733L2.32067 5.42489L2.41401 5.13759L2.16961 4.96001H2.4717L2.56504 4.67271ZM4.27511 4.67271L4.36845 4.96001H4.67057L4.42614 5.13759L4.51951 5.42489L4.27511 5.24733L4.03071 5.42489L4.12405 5.13759L3.87966 4.96001H4.18177L4.27511 4.67271ZM5.98508 4.67271L6.07842 4.96001H6.38051L6.13611 5.13759L6.22945 5.42489L5.98508 5.24733L5.74065 5.42489L5.83402 5.13759L5.58959 4.96001H5.89171L5.98508 4.67271ZM7.69512 4.67271L7.78846 4.96001H8.09057L7.84615 5.13759L7.93952 5.42489L7.69509 5.24733L7.45072 5.42489L7.54406 5.13759L7.29967 4.96001H7.60175L7.69512 4.67271ZM9.40516 4.67271L9.4985 4.96001H9.80062L9.5562 5.13759L9.64956 5.42489L9.40516 5.24733L9.16074 5.42489L9.25413 5.13759L9.00971 4.96001H9.31182L9.40516 4.67271ZM1.71009 5.39963L1.80342 5.68695H2.10554L1.86112 5.86451L1.95451 6.15183L1.71009 5.97428L1.46569 6.15183L1.55903 5.86451L1.31463 5.68695H1.61675L1.71009 5.39963ZM3.42005 5.39963L3.51339 5.68695H3.81548L3.57108 5.86451L3.66442 6.15183L3.42005 5.97428L3.17563 6.15183L3.26899 5.86451L3.02457 5.68695H3.32668L3.42005 5.39963ZM5.13009 5.39963L5.22343 5.68695H5.52555L5.28112 5.86451L5.37449 6.15183L5.13007 5.97428L4.8857 6.15183L4.97904 5.86451L4.73464 5.68695H5.03673L5.13009 5.39963ZM6.84014 5.39963L6.93348 5.68695H7.23559L6.99117 5.86451L7.08454 6.15183L6.84014 5.97428L6.59571 6.15183L6.68911 5.86451L6.44468 5.68695H6.7468L6.84014 5.39963ZM8.5501 5.39963L8.64344 5.68695H8.94553L8.70113 5.86451L8.79447 6.15183L8.5501 5.97428L8.30568 6.15183L8.39905 5.86451L8.15462 5.68695H8.45674L8.5501 5.39963Z" fill="white"/>
<path fill-rule="evenodd" clip-rule="evenodd" d="M0.85505 6.12658L0.94839 6.41387H1.2505L1.00608 6.59146L1.09945 6.87875L0.855023 6.7012L0.610652 6.87875L0.703992 6.59146L0.459595 6.41387H0.761684L0.85505 6.12658ZM2.56504 6.12658L2.65841 6.41387H2.96052L2.7161 6.59146L2.80946 6.87875L2.56504 6.7012L2.32067 6.87875L2.41401 6.59146L2.16961 6.41387H2.4717L2.56504 6.12658ZM4.27511 6.12658L4.36845 6.41387H4.67057L4.42614 6.59146L4.51951 6.87875L4.27511 6.7012L4.03071 6.87875L4.12405 6.59146L3.87966 6.41387H4.18177L4.27511 6.12658ZM5.98508 6.12658L6.07842 6.41387H6.38051L6.13611 6.59146L6.22945 6.87875L5.98508 6.7012L5.74065 6.87875L5.83402 6.59146L5.58959 6.41387H5.89171L5.98508 6.12658ZM7.69512 6.12658L7.78846 6.41387H8.09057L7.84615 6.59146L7.93952 6.87875L7.69509 6.7012L7.45072 6.87875L7.54406 6.59146L7.29967 6.41387H7.60175L7.69512 6.12658ZM9.40516 6.12658L9.4985 6.41387H9.80062L9.5562 6.59146L9.64956 6.87875L9.40516 6.7012L9.16074 6.87875L9.25413 6.59146L9.00971 6.41387H9.31182L9.40516 6.12658Z" fill="white"/>
</g>
</g>
<defs>
<clipPath id="clip0_1_600">
<rect width="18" height="13.5" fill="white"/>
</clipPath>
<clipPath id="clip1_1_600">
<rect width="18" height="13.5" fill="white"/>
</clipPath>
</defs>
</svg>
