<svg width="32" height="32" viewBox="0 0 32 32" fill="none" xmlns="http://www.w3.org/2000/svg">
<g clip-path="url(#clip0_1_649)">
<g clip-path="url(#clip1_1_649)">
<path d="M29.5 16.3C29.5 15.19 29.4081 14.38 29.2092 13.54H16.2755V18.55H23.8673C23.7143 19.795 22.8878 21.67 21.051 22.93L21.0252 23.0977L25.1146 26.2023L25.398 26.23C27.9999 23.875 29.5 20.41 29.5 16.3Z" fill="#4285F4"/>
<path d="M16.2755 29.5C19.9949 29.5 23.1173 28.2999 25.398 26.23L21.051 22.9299C19.8878 23.7249 18.3265 24.2799 16.2755 24.2799C12.6327 24.2799 9.54087 21.925 8.43872 18.67L8.27717 18.6834L4.02497 21.9084L3.96936 22.0599C6.23464 26.4699 10.8877 29.5 16.2755 29.5Z" fill="#34A853"/>
<path d="M8.43872 18.67C8.14791 17.83 7.9796 16.9299 7.9796 16C7.9796 15.0699 8.14791 14.17 8.42342 13.33L8.41571 13.1511L4.11022 9.87427L3.96935 9.93993C3.03572 11.77 2.5 13.825 2.5 16C2.5 18.175 3.03572 20.2299 3.96935 22.0599L8.43872 18.67Z" fill="#FBBC05"/>
<path d="M16.2755 7.71997C18.8622 7.71997 20.6071 8.81496 21.602 9.73002L25.4898 6.01C23.1021 3.83501 19.9949 2.5 16.2755 2.5C10.8877 2.5 6.23464 5.52998 3.96936 9.93994L8.42342 13.33C9.54087 10.075 12.6327 7.71997 16.2755 7.71997Z" fill="#EB4335"/>
</g>
</g>
<defs>
<clipPath id="clip0_1_649">
<rect width="32" height="32" fill="white"/>
</clipPath>
<clipPath id="clip1_1_649">
<rect width="32" height="32" fill="white"/>
</clipPath>
</defs>
</svg>
