<svg width="58" height="58" viewBox="0 0 58 58" fill="none" xmlns="http://www.w3.org/2000/svg">
<g clip-path="url(#clip0_1_763)">
<g clip-path="url(#clip1_1_763)">
<path d="M29 58C45.0163 58 58 45.0163 58 29C58 12.9837 45.0163 0 29 0C12.9837 0 0 12.9837 0 29C0 45.0163 12.9837 58 29 58Z" fill="#DF96AE"/>
<path fill-rule="evenodd" clip-rule="evenodd" d="M25.93 12.7752C26.2292 12.6113 27.354 12.2128 27.6854 12.8451C28.0171 13.4775 27.0743 14.2152 26.7531 14.3915C26.4324 14.5668 25.9085 14.5525 25.6097 13.9824C25.3106 13.4123 25.6307 12.94 25.93 12.7752ZM29.2916 18.9943C29.5909 18.8304 30.7155 18.4309 31.0472 19.0633C31.3786 19.6956 30.4359 20.4334 30.1148 20.6096C29.7939 20.785 29.2701 20.7706 28.9711 20.2005C28.6722 19.6305 28.9921 19.1581 29.2916 18.9943ZM29.0485 43.4999C27.0931 43.5065 25.1924 43.1223 23.3997 42.3587C21.6695 41.6191 20.1161 40.5623 18.7821 39.2132C17.4464 37.8633 16.3958 36.2881 15.66 34.5329C14.8973 32.7154 14.5068 30.7828 14.5001 28.7919C14.4938 26.8009 14.8717 24.8665 15.6223 23.0423C16.3478 21.2822 17.387 19.6994 18.7139 18.3418C20.0394 16.9842 21.586 15.9149 23.3107 15.1647C23.7575 14.9721 24.2287 14.8715 24.7113 14.8696C26.1603 14.8648 27.4657 15.7386 28.0355 17.0963C28.8152 18.954 27.9629 21.1117 26.1381 21.905C25.2714 22.2815 24.4918 22.82 23.8221 23.506C23.1522 24.1939 22.628 24.9901 22.2637 25.8745C21.887 26.7904 21.699 27.7629 21.7022 28.767C21.7055 29.772 21.8998 30.7436 22.2828 31.6557C22.6525 32.5391 23.182 33.3314 23.8564 34.0126C24.5293 34.6948 25.3124 35.2285 26.1828 35.5993C27.0817 35.9825 28.0377 36.1732 29.0244 36.1703C30.0116 36.1665 30.9665 35.9691 31.8635 35.5801C32.7306 35.2026 33.5096 34.6641 34.1788 33.9781C34.8472 33.2921 35.3722 32.4959 35.7369 31.6097C36.1139 30.6937 36.3032 29.7213 36.2997 28.7172C36.2931 26.6965 37.9025 25.0476 39.8878 25.0409C41.8727 25.0342 43.4932 26.6726 43.4999 28.6932C43.5064 30.6842 43.1292 32.6186 42.3773 34.4419C41.654 36.2019 40.6138 37.7838 39.2875 39.1433C37.9618 40.5009 36.4143 41.5683 34.6901 42.3194C32.9023 43.0955 31.0039 43.4931 29.0485 43.4999ZM29.4996 16.2244C29.8337 16.0414 31.2092 15.5298 31.5793 16.2349C31.9493 16.941 30.7768 17.8302 30.4186 18.0266C30.0602 18.223 29.4761 18.2067 29.1423 17.5705C28.8087 16.9343 29.1658 16.4074 29.4996 16.2244ZM28.2156 13.8962C28.5495 13.7132 29.8923 13.2197 30.2622 13.9249C30.6322 14.6301 29.4924 15.502 29.1343 15.6984C28.7762 15.8948 28.1918 15.8785 27.858 15.2423C27.5245 14.6061 27.8817 14.0792 28.2156 13.8962Z" fill="#844461"/>
</g>
</g>
<defs>
<clipPath id="clip0_1_763">
<rect width="58" height="58" fill="white"/>
</clipPath>
<clipPath id="clip1_1_763">
<rect width="58" height="58" fill="white"/>
</clipPath>
</defs>
</svg>
