<svg width="230" height="128" viewBox="0 0 230 128" fill="none" xmlns="http://www.w3.org/2000/svg">
<g clip-path="url(#clip0_1_745)">
<g clip-path="url(#clip1_1_745)">
<path d="M32.9259 0.391671L212.456 29.7275C223.356 31.511 230.749 41.7906 228.971 52.6914L219.518 110.586C217.759 121.373 207.675 128.726 196.902 127.155L196.558 127.102C196.558 127.102 196.557 127.101 196.556 127.099L17.0266 97.7632C6.12673 95.9797 -1.26621 85.7001 0.511386 74.7993L9.96467 16.905C11.7237 6.11802 21.8072 -1.23495 32.58 0.33585L32.924 0.389018C32.9248 0.389142 32.9255 0.389267 32.9259 0.391671Z" fill="#DF96AE"/>
<path d="M73.9221 52.6332L76.0573 39.8156L75.9804 39.8035L69.2344 51.8907L66.1604 51.4038L63.6078 37.8438L63.5309 37.8316L61.6007 50.6816L57.4765 50.0284L60.349 31.8921L66.5738 32.878L68.856 45.161L68.9585 45.1772L74.7454 34.1722L81.0726 35.1744L78.2001 53.3107L73.9221 52.6332Z" fill="#844461"/>
<path d="M94.8763 55.952L94.0313 52.1682L87.0125 51.0565L85.1165 54.4062L80.3519 53.6515L90.8324 36.7202L95.0847 37.3937L99.7434 56.7228L94.8763 55.952ZM92.1149 41.8863L88.8235 47.7459L93.3832 48.468L92.1149 41.8863Z" fill="#844461"/>
<path d="M113.423 58.8894L108 45.8727L107.924 45.8606L106.147 57.7371L101.895 57.0636L104.768 38.9273L109.763 39.7185L115.163 52.7054L115.24 52.7176L117.012 40.8667L121.265 41.5402L118.392 59.6765L113.423 58.8894Z" fill="#844461"/>
<path d="M135.068 62.3178L134.223 58.534L127.205 57.4223L125.308 60.772L120.544 60.0173L131.024 43.086L135.277 43.7595L139.935 63.0886L135.068 62.3178ZM132.307 48.252L129.016 54.1116L133.575 54.8338L132.307 48.252Z" fill="#844461"/>
<path d="M157.913 64.8069C156.952 65.1274 155.855 65.3387 154.622 65.4411C153.389 65.5434 152.073 65.4837 150.672 65.2619C149.221 65.032 147.921 64.5898 146.773 63.9353C145.625 63.2808 144.678 62.4655 143.931 61.4894C143.184 60.5133 142.655 59.4011 142.345 58.1529C142.035 56.9046 141.994 55.5633 142.221 54.1287C142.451 52.6772 142.911 51.4021 143.602 50.3035C144.292 49.205 145.147 48.3119 146.166 47.6243C147.185 46.9367 148.328 46.4655 149.593 46.2108C150.859 45.9562 152.184 45.9384 153.567 46.1575C155.002 46.3847 156.299 46.8134 157.46 47.4436C158.62 48.0738 159.527 48.817 160.179 49.673L156.913 52.3856C156.565 51.8228 156.065 51.3279 155.415 50.9011C154.765 50.4743 153.996 50.1905 153.108 50.0499C152.34 49.9281 151.609 49.9568 150.915 50.1358C150.221 50.3148 149.596 50.6183 149.038 51.0464C148.48 51.4744 148.014 52.0133 147.639 52.663C147.265 53.3127 147.013 54.0474 146.883 54.8672C146.751 55.704 146.749 56.4914 146.877 57.2294C147.005 57.9675 147.264 58.6256 147.654 59.2038C148.044 59.7819 148.562 60.2667 149.209 60.658C149.856 61.0493 150.624 61.3153 151.512 61.456C152.024 61.5371 152.517 61.5758 152.99 61.5719C153.463 61.5681 153.91 61.5119 154.33 61.4034L154.853 58.0989L151.395 57.5511L151.955 54.0161L159.435 55.2008L157.913 64.8069Z" fill="#844461"/>
<path d="M161.965 66.5779L164.838 48.4415L177.031 50.3728L176.443 54.0871L168.476 52.8253L167.937 56.2323L175.468 57.4251L174.912 60.9346L167.381 59.7417L166.784 63.5073L175.212 64.8422L174.62 68.5821L161.965 66.5779Z" fill="#844461"/>
<path d="M50.7685 67.3472L49.5513 75.0321L45.1709 74.3383L46.3881 66.6534L41.2295 55.1227L46.5321 55.9626L49.3371 63.2867L54.2682 57.1879L59.3914 57.9993L50.7685 67.3472Z" fill="#844461"/>
<path d="M78.0505 70.1715C77.8233 71.606 77.3681 72.8774 76.6849 73.9859C76.0016 75.0943 75.1533 76.0016 74.1399 76.7076C73.1265 77.4137 71.9771 77.9012 70.6916 78.1703C69.406 78.4393 68.0545 78.4616 66.6371 78.2371C65.2197 78.0126 63.9455 77.5745 62.8145 76.9227C61.6836 76.2709 60.7453 75.4527 59.9997 74.468C59.2541 73.4834 58.7277 72.3584 58.4204 71.0931C58.1132 69.8278 58.0731 68.4779 58.3003 67.0433C58.5303 65.5917 58.9855 64.3203 59.666 63.2289C60.3465 62.1375 61.1915 61.2516 62.2008 60.5712C63.2101 59.8908 64.3519 59.4239 65.6262 59.1706C66.9005 58.9173 68.2464 58.9028 69.6638 59.1273C71.0812 59.3518 72.361 59.7821 73.5032 60.4182C74.6454 61.0542 75.5913 61.8518 76.341 62.8108C77.0906 63.7698 77.6204 64.8734 77.9304 66.1217C78.2404 67.3699 78.2804 68.7199 78.0505 70.1715ZM73.3627 69.429C73.4871 68.6434 73.4754 67.8888 73.3274 67.1651C73.1794 66.4415 72.9177 65.8004 72.5422 65.242C72.1668 64.6836 71.6812 64.2128 71.0854 63.8296C70.4896 63.4464 69.8075 63.194 69.039 63.0722C68.2705 62.9505 67.548 62.9805 66.8715 63.1622C66.195 63.3439 65.5877 63.6416 65.0495 64.0553C64.5113 64.469 64.0643 64.9978 63.7085 65.6416C63.3527 66.2855 63.1125 67.0002 62.9881 67.7858C62.8583 68.6055 62.8667 69.3815 63.0133 70.1137C63.1599 70.8459 63.4203 71.4955 63.7944 72.0624C64.1685 72.6293 64.6492 73.1037 65.2364 73.4856C65.8237 73.8674 66.5015 74.1192 67.27 74.241C68.0385 74.3627 68.761 74.3327 69.4375 74.151C70.114 73.9693 70.722 73.6673 71.2616 73.2451C71.8011 72.8229 72.2537 72.2862 72.6194 71.6352C72.9851 70.9841 73.2329 70.2487 73.3627 69.429Z" fill="#844461"/>
<path d="M96.5902 75.4712C96.4171 76.5641 96.0759 77.5298 95.5668 78.3683C95.0576 79.2067 94.4107 79.892 93.6262 80.4242C92.8417 80.9564 91.9386 81.3254 90.9169 81.5312C89.8952 81.737 88.7952 81.7466 87.6168 81.56C86.4214 81.3707 85.3739 81.0209 84.4744 80.5108C83.5748 80.0007 82.8428 79.3728 82.2782 78.6269C81.7136 77.881 81.323 77.0313 81.1064 76.078C80.8897 75.1246 80.868 74.1014 81.0411 73.0085L82.8303 61.7117L87.1851 62.4014L85.4527 73.3396C85.3742 73.8348 85.3639 74.3146 85.4216 74.7789C85.4794 75.2432 85.6129 75.6713 85.8221 76.0634C86.0314 76.4554 86.3375 76.7883 86.7406 77.0622C87.1436 77.3361 87.6525 77.5218 88.2673 77.6191C88.8821 77.7165 89.4234 77.6972 89.8914 77.5613C90.3593 77.4253 90.7576 77.2039 91.0863 76.8971C91.415 76.5903 91.6743 76.2244 91.8641 75.7993C92.054 75.3742 92.1882 74.914 92.2666 74.4188L93.999 63.4806L98.3794 64.1744L96.5902 75.4712Z" fill="#844461"/>
<path d="M109.391 84.5098L106.612 76.6908L105.126 76.4555L103.986 83.6537L99.6823 82.9721L102.555 64.8358L109.471 65.9312C110.342 66.0692 111.178 66.2934 111.977 66.6039C112.777 66.9144 113.472 67.3351 114.062 67.8662C114.652 68.3973 115.088 69.044 115.37 69.8064C115.652 70.5688 115.71 71.4709 115.545 72.5126C115.35 73.7422 114.854 74.7226 114.055 75.4539C113.256 76.1852 112.24 76.6369 111.004 76.8089L114.514 85.3212L109.391 84.5098ZM111.204 71.9038C111.271 71.4768 111.236 71.1168 111.099 70.8237C110.962 70.5306 110.764 70.2892 110.505 70.0994C110.246 69.9096 109.946 69.7614 109.604 69.6547C109.262 69.548 108.928 69.469 108.604 69.4176L106.273 69.0484L105.603 73.275L107.678 73.6037C108.037 73.6605 108.409 73.6887 108.794 73.6885C109.179 73.6882 109.538 73.6356 109.869 73.5306C110.201 73.4256 110.488 73.2434 110.731 72.9842C110.973 72.725 111.131 72.3649 111.204 71.9038Z" fill="#844461"/>
<path d="M140.797 89.4839L142.932 76.6664L142.855 76.6542L136.109 88.7415L133.035 88.2546L130.482 74.6946L130.405 74.6824L128.475 87.5324L124.351 86.8792L127.223 68.7429L133.448 69.7288L135.73 82.0118L135.833 82.028L141.62 71.023L147.947 72.0252L145.074 90.1615L140.797 89.4839Z" fill="#844461"/>
<path d="M161.751 92.8027L160.906 89.0189L153.887 87.9072L151.991 91.2569L147.226 90.5022L157.707 73.5709L161.959 74.2444L166.618 93.5736L161.751 92.8027ZM158.989 78.737L155.698 84.5966L160.257 85.3187L158.989 78.737Z" fill="#844461"/>
<path d="M184.665 93.8586C183.716 94.6537 182.61 95.2268 181.347 95.5782C180.083 95.9295 178.683 95.9834 177.146 95.74C175.745 95.5182 174.488 95.0827 173.374 94.4337C172.261 93.7846 171.335 92.9684 170.598 91.9851C169.861 91.0018 169.338 89.8818 169.029 88.625C168.721 87.3682 168.679 86.0311 168.903 84.6137C169.133 83.1621 169.593 81.887 170.284 80.7885C170.974 79.6899 171.829 78.7968 172.848 78.1092C173.867 77.4216 175.01 76.9504 176.276 76.6958C177.541 76.4411 178.866 76.4233 180.249 76.6424C181.53 76.8452 182.754 77.271 183.92 77.9197C185.087 78.5683 185.985 79.389 186.616 80.3816L183.174 82.8825C182.853 82.254 182.381 81.7504 181.758 81.3717C181.136 80.993 180.474 80.7482 179.774 80.6373C179.006 80.5155 178.279 80.5449 177.594 80.7252C176.909 80.9055 176.296 81.2068 175.757 81.629C175.217 82.0513 174.766 82.5794 174.403 83.2134C174.04 83.8474 173.795 84.5657 173.668 85.3683C173.538 86.188 173.547 86.9597 173.695 87.6834C173.843 88.4071 174.105 89.0481 174.48 89.6065C174.856 90.1649 175.338 90.6307 175.926 91.0041C176.515 91.3774 177.185 91.6235 177.936 91.7426C178.807 91.8805 179.594 91.8301 180.297 91.5913C181 91.3526 181.592 90.991 182.071 90.5068L184.665 93.8586Z" fill="#844461"/>
</g>
</g>
<defs>
<clipPath id="clip0_1_745">
<rect width="230" height="128" fill="white"/>
</clipPath>
<clipPath id="clip1_1_745">
<rect width="230" height="128" fill="white"/>
</clipPath>
</defs>
</svg>
