<svg width="142" height="142" viewBox="0 0 142 142" fill="none" xmlns="http://www.w3.org/2000/svg">
<g clip-path="url(#clip0_1_710)">
<g clip-path="url(#clip1_1_710)">
<path d="M71.0644 141.206C109.91 141.206 141.401 109.702 141.401 70.8391C141.401 31.9764 109.91 0.472015 71.0644 0.472015C32.2187 0.472015 0.728088 31.9764 0.728088 70.8391C0.728088 109.702 32.2187 141.206 71.0644 141.206Z" fill="#DBEAE5"/>
<path d="M82.4692 22.8352C83.2551 21.6301 84.8689 21.2904 86.075 22.0757C87.2807 22.8619 87.6211 24.4755 86.836 25.681C86.0502 26.8862 84.4359 27.2266 83.2302 26.4405C82.0245 25.6543 81.6834 24.0403 82.4692 22.8352Z" fill="#384C75"/>
<path d="M42.6497 109.821C43.4356 108.616 45.0494 108.276 46.2555 109.062C47.4612 109.848 47.8016 111.461 47.0165 112.667C46.2307 113.872 44.6164 114.213 43.4107 113.426C42.205 112.64 41.8639 111.026 42.6497 109.821Z" fill="#384C75"/>
<path d="M24.4668 47.2295C25.2527 46.0244 26.8665 45.6847 28.0726 46.4701C29.2783 47.2562 29.6187 48.8698 28.8336 50.0754C28.0478 51.2805 26.4335 51.621 25.2278 50.8348C24.0221 50.0487 23.681 48.4347 24.4668 47.2295Z" fill="#384C75"/>
<path d="M58.4308 25.443C58.315 24.6229 58.3694 23.91 58.594 23.3044C58.8187 22.6988 59.1645 22.1872 59.6315 21.7696C60.0984 21.352 60.6578 21.0157 61.3096 20.7607C61.9614 20.5056 62.6508 20.3261 63.3779 20.2223L65.0633 19.9815L64.3151 14.6838L67.7059 14.1993L69.6901 28.2471L64.5345 28.9837C63.7678 29.0932 63.0399 29.1196 62.3508 29.0629C61.6617 29.0062 61.0455 28.8446 60.5021 28.5781C59.9587 28.3116 59.5062 27.9242 59.1444 27.4158C58.7827 26.9075 58.5448 26.2499 58.4308 25.443ZM61.8188 24.9387C61.8655 25.2694 61.9699 25.5311 62.132 25.7239C62.2941 25.9166 62.4959 26.0565 62.7375 26.1434C62.979 26.2304 63.2447 26.2734 63.5345 26.2724C63.8244 26.2715 64.1213 26.2493 64.4253 26.2059L65.9125 25.9934L65.4445 22.6799L64.0168 22.8839C63.6995 22.9292 63.3992 22.9991 63.1159 23.0936C62.8325 23.188 62.5845 23.3179 62.3718 23.4833C62.1592 23.6486 62.0022 23.8498 61.9008 24.087C61.7994 24.3241 61.7721 24.608 61.8188 24.9387Z" fill="#384C75"/>
<path d="M42.9348 30.0592C42.3876 28.9445 42.122 27.8808 42.1383 26.868C42.1545 25.8552 42.3732 24.9213 42.7943 24.0662C43.2154 23.2111 43.791 22.451 44.5213 21.786C45.2515 21.1209 46.054 20.5728 46.9288 20.1416L51.6745 17.8026L57.9241 30.5311L53.3222 32.7992C52.4234 33.2422 51.4851 33.5744 50.5073 33.7959C49.5295 34.0173 48.5799 34.0537 47.6585 33.9049C46.7371 33.7562 45.8666 33.3777 45.047 32.7694C44.2274 32.1611 43.5233 31.2577 42.9348 30.0592ZM46.1346 28.4821C46.4876 29.2012 46.8973 29.7399 47.3634 30.0982C47.8295 30.4564 48.3265 30.6804 48.8542 30.7701C49.382 30.8598 49.924 30.842 50.4802 30.7167C51.0364 30.5914 51.5781 30.3989 52.1054 30.139L53.6333 29.3859L49.9789 21.9429L48.5229 22.6606C47.9716 22.9323 47.4722 23.2566 47.0247 23.6335C46.5772 24.0103 46.2293 24.4386 45.981 24.9182C45.7328 25.3978 45.6095 25.9349 45.6112 26.5295C45.6129 27.1241 45.7874 27.775 46.1346 28.4821Z" fill="#384C75"/>
<path d="M40.6252 37.9895L38.5982 35.8835L34.6437 39.6964L32.6861 37.6625L36.6406 33.8497L32.8227 29.8829L35.2618 27.5312L45.0913 37.7439L38.3657 44.2284L36.3387 42.1224L40.6252 37.9895Z" fill="#384C75"/>
<path d="M16.0119 69.814L16.114 66.3881L30.4463 61.4218L30.3317 65.2684L20.185 68.2684L20.1827 68.3485L30.1341 71.8999L30.0212 75.6864L16.0119 69.814Z" fill="#384C75"/>
<path d="M28.7264 88.0471C27.9238 88.2508 27.2098 88.2735 26.5845 88.1153C25.9593 87.9571 25.4147 87.6681 24.9508 87.2484C24.4869 86.8288 24.094 86.3084 23.7721 85.6873C23.4503 85.0662 23.1996 84.3995 23.02 83.6871L22.6037 82.0358L17.419 83.3518L16.5816 80.0298L30.3297 76.5401L31.603 81.5912C31.7924 82.3424 31.8951 83.0639 31.9111 83.7558C31.9271 84.4476 31.8312 85.0782 31.6236 85.6477C31.4159 86.2172 31.0785 86.7093 30.6115 87.1242C30.1444 87.539 29.5161 87.8466 28.7264 88.0471ZM27.8695 84.7299C28.1932 84.6478 28.4422 84.5157 28.6167 84.3336C28.7912 84.1515 28.9089 83.9356 28.9699 83.6858C29.031 83.4361 29.0458 83.167 29.0144 82.8787C28.9831 82.5904 28.9298 82.2973 28.8547 81.9994L28.4875 80.5424L25.2446 81.3655L25.5972 82.7643C25.6756 83.0751 25.7765 83.3664 25.9002 83.6382C26.0238 83.91 26.1789 84.1428 26.3654 84.3366C26.552 84.5304 26.7685 84.6649 27.0147 84.7402C27.261 84.8155 27.5459 84.8121 27.8695 84.7299Z" fill="#384C75"/>
<path d="M26.6407 103.229L31.4531 93.4477L31.4211 93.3968L23.6138 98.4145L21.8446 95.6003L33.8484 88.0311L35.9267 91.337L31.1206 101.091L31.1526 101.142L38.943 96.1348L40.7122 98.949L28.7084 106.518L26.6407 103.229Z" fill="#384C75"/>
<path d="M65.0842 125.4L64.5011 122.462L59.1032 121.483L57.5785 124.038L53.9143 123.373L62.3137 110.472L65.5839 111.066L68.8273 126.079L65.0842 125.4ZM63.2094 114.486L60.5617 118.956L64.0683 119.592L63.2094 114.486Z" fill="#384C75"/>
<path d="M85.8695 117.202C86.0277 118.435 85.9358 119.528 85.5937 120.482C85.2517 121.435 84.7436 122.249 84.0694 122.923C83.3952 123.596 82.6054 124.13 81.7001 124.524C80.7948 124.918 79.8588 125.177 78.8921 125.303L73.6482 125.985L71.842 111.913L76.927 111.252C77.9201 111.123 78.9149 111.111 79.9113 111.217C80.9078 111.324 81.8178 111.596 82.6415 112.035C83.4652 112.473 84.1666 113.113 84.7457 113.954C85.3249 114.794 85.6995 115.877 85.8695 117.202ZM82.3339 117.662C82.2319 116.867 82.0181 116.224 81.6927 115.735C81.3673 115.245 80.9695 114.872 80.4991 114.617C80.0288 114.361 79.5103 114.203 78.9438 114.142C78.3772 114.081 77.8026 114.088 77.22 114.164L75.5316 114.383L76.5878 122.612L78.1967 122.403C78.8059 122.324 79.3829 122.178 79.9278 121.966C80.4727 121.753 80.94 121.46 81.3295 121.086C81.7191 120.712 82.0089 120.244 82.1991 119.68C82.3893 119.116 82.4342 118.444 82.3339 117.662Z" fill="#384C75"/>
<path d="M106.849 108.533C107.29 109.169 107.535 109.792 107.583 110.401C107.631 111.01 107.538 111.59 107.303 112.144C107.069 112.697 106.726 113.216 106.273 113.701C105.821 114.186 105.315 114.623 104.755 115.012L100.114 118.239L92.0366 106.588L96.678 103.361C97.1278 103.049 97.621 102.775 98.1575 102.54C98.6939 102.305 99.2322 102.167 99.7721 102.125C100.312 102.083 100.836 102.17 101.343 102.386C101.851 102.602 102.31 103.007 102.721 103.599C103.17 104.246 103.365 104.903 103.307 105.57C103.248 106.236 102.999 106.861 102.557 107.444L102.58 107.477C102.947 107.303 103.328 107.189 103.721 107.135C104.114 107.081 104.498 107.095 104.872 107.176C105.245 107.258 105.602 107.408 105.941 107.628C106.28 107.847 106.583 108.149 106.849 108.533ZM100.268 105.865C99.9938 105.47 99.6433 105.287 99.216 105.316C98.7888 105.345 98.2789 105.565 97.6864 105.977L96.3039 106.938L97.9695 109.341L99.4837 108.288C100.01 107.922 100.345 107.531 100.487 107.115C100.63 106.699 100.557 106.282 100.268 105.865ZM103.852 110.226C103.517 109.744 103.104 109.535 102.613 109.6C102.122 109.665 101.574 109.908 100.971 110.327L99.407 111.414L101.255 114.08L102.835 112.982C103.055 112.829 103.269 112.652 103.478 112.449C103.688 112.247 103.854 112.029 103.978 111.797C104.101 111.565 104.161 111.316 104.156 111.052C104.151 110.787 104.05 110.512 103.852 110.226Z" fill="#384C75"/>
<path d="M113.229 107.513L102.2 98.6115L104.365 95.9268L113.073 102.955L116.521 98.6785L118.842 100.552L113.229 107.513Z" fill="#384C75"/>
<path d="M119.796 79.9503C120.838 80.3646 121.718 80.9232 122.436 81.6261C123.155 82.329 123.694 83.1223 124.053 84.006C124.412 84.8897 124.583 85.8389 124.567 86.8538C124.551 87.8687 124.337 88.8914 123.927 89.9221C123.516 90.9529 122.969 91.8394 122.286 92.5817C121.602 93.324 120.826 93.8929 119.958 94.2883C119.089 94.6837 118.152 94.8901 117.147 94.9074C116.142 94.9248 115.118 94.7263 114.077 94.312C113.022 93.8928 112.142 93.3342 111.436 92.6362C110.73 91.9382 110.207 91.1511 109.866 90.2748C109.526 89.3986 109.369 88.4586 109.395 87.4548C109.421 86.4511 109.64 85.4339 110.05 84.4032C110.461 83.3725 111.003 82.4804 111.676 81.7269C112.35 80.9735 113.111 80.3953 113.961 79.9925C114.811 79.5897 115.733 79.3772 116.726 79.3549C117.719 79.3326 118.742 79.5311 119.796 79.9503ZM118.439 83.3591C117.868 83.1322 117.298 83.0133 116.728 83.0023C116.157 82.9913 115.63 83.08 115.146 83.2686C114.661 83.4571 114.224 83.7435 113.834 84.1278C113.444 84.5121 113.137 84.9837 112.915 85.5425C112.692 86.1013 112.592 86.6511 112.613 87.192C112.635 87.7329 112.756 88.2412 112.976 88.7171C113.196 89.1929 113.518 89.6195 113.942 89.9969C114.366 90.3742 114.864 90.6763 115.434 90.9032C116.029 91.1399 116.615 91.265 117.192 91.2785C117.768 91.292 118.302 91.2057 118.792 91.0197C119.283 90.8336 119.722 90.5515 120.11 90.1734C120.497 89.7953 120.802 89.3269 121.025 88.768C121.248 88.2092 121.348 87.6594 121.326 87.1185C121.305 86.5777 121.181 86.0681 120.955 85.5898C120.729 85.1114 120.402 84.6793 119.974 84.2933C119.546 83.9072 119.034 83.5959 118.439 83.3591Z" fill="#384C75"/>
<path d="M125.574 64.1827C126.277 64.8301 126.825 65.6204 127.219 66.5535C127.613 67.4866 127.792 68.5542 127.758 69.7563C127.727 70.8516 127.517 71.8585 127.13 72.7769C126.744 73.6954 126.21 74.4862 125.53 75.1493C124.85 75.8125 124.044 76.3252 123.112 76.6874C122.18 77.0496 121.16 77.2156 120.052 77.1853C118.918 77.1543 117.896 76.9293 116.987 76.5101C116.077 76.0909 115.309 75.5252 114.681 74.813C114.054 74.1008 113.58 73.2724 113.26 72.328C112.94 71.3835 112.795 70.3703 112.826 69.2884C112.855 68.2867 113.06 67.3064 113.442 66.3477C113.823 65.389 114.363 64.6184 115.06 64.0359L117.316 66.4234C116.866 66.732 116.527 67.1438 116.299 67.6589C116.07 68.174 115.948 68.7053 115.933 69.2529C115.915 69.854 116.01 70.408 116.215 70.9149C116.421 71.4218 116.712 71.8608 117.089 72.232C117.466 72.6032 117.915 72.8962 118.436 73.1109C118.958 73.3257 119.532 73.4416 120.159 73.4588C120.8 73.4763 121.39 73.3921 121.929 73.2063C122.469 73.0206 122.934 72.7559 123.324 72.4123C123.715 72.0687 124.024 71.6528 124.252 71.1644C124.479 70.676 124.602 70.138 124.619 69.5503C124.638 68.8691 124.522 68.2711 124.269 67.7562C124.017 67.2414 123.682 66.8245 123.264 66.5056L125.574 64.1827Z" fill="#384C75"/>
<path d="M124.095 50.8633L119.307 57.7631L119.318 57.8016L125.584 55.9591L126.528 59.1897L112.919 63.191L111.975 59.9604L117.511 58.3328L117.494 58.2751L110.537 55.0377L109.334 50.9226L117.314 54.9452L122.842 46.5752L124.095 50.8633Z" fill="#384C75"/>
<path d="M120.399 42.4418L108.508 50.188L103.316 42.1945L105.751 40.6081L109.144 45.8307L111.378 44.3756L108.171 39.4384L110.471 37.9395L113.678 42.8767L116.147 41.2683L112.558 35.7434L115.011 34.1461L120.399 42.4418Z" fill="#384C75"/>
<path d="M104.943 25.0998L103.686 31.3898L104.578 32.1338L108.185 27.8064L110.767 29.9615L101.677 40.8647L97.5277 37.4012C97.0052 36.965 96.5403 36.4857 96.1333 35.9631C95.7262 35.4406 95.4324 34.8863 95.2519 34.3004C95.0715 33.7145 95.0388 33.1127 95.1541 32.4951C95.2694 31.8775 95.5881 31.2555 96.1102 30.6293C96.7265 29.8901 97.4441 29.4357 98.2631 29.2661C99.0821 29.0966 99.935 29.1991 100.822 29.5735L101.869 22.5342L104.943 25.0998ZM98.7461 32.751C98.5321 33.0076 98.4126 33.2604 98.3875 33.5093C98.3624 33.7583 98.398 33.9969 98.4943 34.2253C98.5907 34.4537 98.731 34.6709 98.9154 34.877C99.0997 35.0831 99.2892 35.2674 99.4839 35.4299L100.883 36.5972L103.001 34.0562L101.756 33.0172C101.541 32.8376 101.306 32.6717 101.05 32.5195C100.795 32.3673 100.536 32.2604 100.275 32.1989C100.014 32.1374 99.7511 32.1447 99.4878 32.2209C99.2244 32.2971 98.9772 32.4738 98.7461 32.751Z" fill="#384C75"/>
</g>
</g>
<defs>
<clipPath id="clip0_1_710">
<rect width="141.71" height="141.71" fill="white"/>
</clipPath>
<clipPath id="clip1_1_710">
<rect width="141.71" height="141.71" fill="white"/>
</clipPath>
</defs>
</svg>
