<svg width="173" height="173" viewBox="0 0 173 173" fill="none" xmlns="http://www.w3.org/2000/svg">
<g clip-path="url(#clip0_1_678)">
<g clip-path="url(#clip1_1_678)">
<path d="M11.4365 130.684C1.83141 126.534 -2.59114 115.384 1.55841 105.779L42.3159 11.4366C46.4655 1.83149 57.6158 -2.59116 67.221 1.55839L161.564 42.3159C171.168 46.4654 175.591 57.6159 171.442 67.2211L130.684 161.563C126.534 171.168 115.384 175.591 105.779 171.442L11.4365 130.684Z" fill="#F0AD84"/>
<path d="M60.6212 81.0427L56.5572 82.6846L48.5368 72.5263L48.4647 72.5554L49.7519 85.4342L45.6639 87.0858L33.9517 72.0133L38.3764 70.2257L45.6457 80.4637L45.7179 80.4345L44.1717 67.8842L48.4521 66.1548L56.0822 76.2471L56.1543 76.2179L54.3196 63.7842L58.6 62.0548L60.6212 81.0427Z" fill="#A54E34"/>
<path d="M81.825 62.4896C82.369 63.8363 82.6337 65.1606 82.6189 66.4626C82.6042 67.7646 82.3443 68.9792 81.8393 70.1063C81.3343 71.2334 80.6001 72.2434 79.6368 73.1361C78.6735 74.0288 77.5265 74.744 76.1959 75.2816C74.8653 75.8192 73.5474 76.0999 72.2423 76.1237C70.9372 76.1474 69.7116 75.9293 68.5653 75.4694C67.4191 75.0094 66.3885 74.3162 65.4734 73.3899C64.5583 72.4635 63.8287 71.327 63.2847 69.9804C62.7341 68.6177 62.4695 67.2934 62.4907 66.0074C62.5119 64.7214 62.7799 63.5269 63.2946 62.4238C63.8093 61.3207 64.5476 60.3325 65.5094 59.459C66.4712 58.5856 67.6174 57.8801 68.948 57.3425C70.2786 56.8049 71.5972 56.5145 72.9039 56.4715C74.2105 56.4284 75.4321 56.6248 76.5686 57.0608C77.7051 57.4967 78.7277 58.1698 79.6362 59.0802C80.5448 59.9905 81.2744 61.127 81.825 62.4896ZM77.4243 64.2676C77.1264 63.5302 76.7277 62.8894 76.2281 62.3453C75.7285 61.8012 75.1741 61.3865 74.5646 61.1013C73.9552 60.816 73.2965 60.6626 72.5884 60.6409C71.8804 60.6193 71.1656 60.7542 70.4442 61.0457C69.7228 61.3372 69.119 61.735 68.6327 62.2392C68.1464 62.7433 67.7791 63.3113 67.5309 63.9431C67.2826 64.5749 67.1718 65.2583 67.1984 65.9935C67.2251 66.7287 67.3873 67.465 67.6853 68.2024C67.9962 68.9719 68.403 69.6328 68.9058 70.1849C69.4086 70.737 69.9663 71.1597 70.579 71.4529C71.1917 71.7462 71.848 71.9053 72.5481 71.9301C73.2481 71.955 73.9588 71.8217 74.6802 71.5302C75.4016 71.2388 76.0055 70.8409 76.4918 70.3368C76.9781 69.8326 77.3437 69.2606 77.5887 68.6208C77.8337 67.981 77.9453 67.2879 77.9235 66.5415C77.9016 65.7951 77.7352 65.0371 77.4243 64.2676Z" fill="#A54E34"/>
<path d="M97.7258 66.0514L91.3165 60.7807L89.9218 61.3442L92.6519 68.1014L88.612 69.7337L81.7333 52.7083L88.226 50.0851C89.0436 49.7548 89.8752 49.5167 90.7207 49.3709C91.5662 49.2251 92.3786 49.2279 93.1577 49.3793C93.9368 49.5307 94.6435 49.8606 95.2778 50.3689C95.9121 50.8772 96.4268 51.6203 96.8219 52.5983C97.2882 53.7525 97.3675 54.8487 97.0597 55.8869C96.7518 56.925 96.1128 57.8359 95.1427 58.6194L102.535 64.1083L97.7258 66.0514ZM92.7871 54.3123C92.6252 53.9116 92.4098 53.6209 92.1411 53.4404C91.8724 53.26 91.5782 53.155 91.2587 53.1256C90.9391 53.0962 90.6053 53.1239 90.2572 53.2086C89.9091 53.2933 89.5828 53.3971 89.2782 53.5202L87.0899 54.4043L88.693 58.3721L90.6408 57.5851C90.9775 57.4491 91.3108 57.2818 91.6408 57.0832C91.9708 56.8846 92.251 56.6548 92.4812 56.394C92.7115 56.1331 92.8638 55.8292 92.938 55.4821C93.0123 55.1351 92.962 54.7452 92.7871 54.3123Z" fill="#A54E34"/>
<path d="M115.569 58.8424L106.077 53.5583L106.029 53.5777L109.196 61.4171L105.156 63.0493L98.2777 46.024L102.318 44.3918L105.116 51.3173L105.188 51.2882L108.474 41.9046L113.62 39.8254L109.453 50.628L120.931 56.6759L115.569 58.8424Z" fill="#A54E34"/>
<path d="M76.9498 102.418L72.8858 104.06L64.8654 93.9015L64.7933 93.9307L66.0805 106.809L61.9925 108.461L50.2803 93.3886L54.705 91.6009L61.9743 101.839L62.0465 101.81L60.5003 89.2595L64.7807 87.5301L72.4108 97.6224L72.4829 97.5932L70.6482 85.1595L74.9286 83.4301L76.9498 102.418Z" fill="#A54E34"/>
<path d="M84.1639 99.5033L77.2852 82.4779L81.4213 80.8068L88.3 97.8322L84.1639 99.5033Z" fill="#A54E34"/>
<path d="M94.2381 79.7125L99.6983 93.2269L95.5862 94.8883L90.126 81.3739L85.3166 83.317L83.8981 79.8061L97.629 74.2585L99.0475 77.7694L94.2381 79.7125Z" fill="#A54E34"/>
<path d="M117.734 85.9402L114.858 78.8223L108.221 81.5038L111.097 88.6217L106.985 90.2831L100.106 73.2578L104.218 71.5964L106.822 78.041L113.459 75.3595L110.855 68.9149L114.967 67.2535L121.846 84.2788L117.734 85.9402Z" fill="#A54E34"/>
<path d="M82.1091 114.599C82.5107 115.593 82.6648 116.505 82.5713 117.336C82.4779 118.166 82.2028 118.916 81.7459 119.585C81.2891 120.255 80.6908 120.851 79.9509 121.374C79.211 121.896 78.4002 122.336 77.5185 122.692L75.4745 123.518L78.0686 129.938L73.9565 131.6L67.0779 114.574L73.3301 112.048C74.2599 111.673 75.1669 111.413 76.0509 111.271C76.935 111.128 77.7602 111.14 78.5265 111.305C79.2929 111.471 79.9828 111.817 80.5963 112.343C81.2097 112.869 81.714 113.621 82.1091 114.599ZM78.0068 116.285C77.8449 115.884 77.6319 115.588 77.368 115.396C77.104 115.204 76.8067 115.091 76.4758 115.057C76.145 115.023 75.7975 115.051 75.4334 115.143C75.0693 115.234 74.7029 115.354 74.3342 115.503L72.5307 116.232L74.1532 120.247L75.8846 119.548C76.2693 119.392 76.6251 119.211 76.9519 119.005C77.2786 118.798 77.5499 118.558 77.7657 118.284C77.9815 118.011 78.1161 117.709 78.1695 117.38C78.223 117.051 78.1687 116.686 78.0068 116.285Z" fill="#A54E34"/>
<path d="M89.9478 125.139L83.0692 108.114L87.2052 106.442L94.0839 123.468L89.9478 125.139Z" fill="#A54E34"/>
<path d="M112.225 113.397C111.821 114.567 111.169 115.628 110.266 116.58C109.364 117.532 108.192 118.299 106.749 118.882C105.434 119.413 104.133 119.688 102.843 119.705C101.554 119.722 100.341 119.499 99.2026 119.036C98.0644 118.573 97.0393 117.882 96.1275 116.964C95.2157 116.045 94.491 114.921 93.9534 113.59C93.4028 112.228 93.1405 110.898 93.1665 109.6C93.1925 108.303 93.4653 107.097 93.9848 105.983C94.5043 104.869 95.2409 103.876 96.1947 103.006C97.1485 102.136 98.2747 101.439 99.5732 100.914C100.776 100.428 102.044 100.163 103.378 100.118C104.712 100.073 105.904 100.314 106.956 100.84L105.294 104.757C104.695 104.383 104.031 104.194 103.303 104.19C102.574 104.187 101.881 104.317 101.223 104.583C100.502 104.874 99.8942 105.274 99.3998 105.781C98.9055 106.289 98.5359 106.862 98.2909 107.502C98.0459 108.142 97.931 108.827 97.9464 109.557C97.9618 110.288 98.1217 111.03 98.4261 111.783C98.737 112.553 99.1422 113.209 99.6418 113.754C100.141 114.298 100.696 114.712 101.305 114.998C101.915 115.283 102.568 115.434 103.265 115.451C103.961 115.468 104.662 115.334 105.368 115.049C106.185 114.718 106.834 114.27 107.314 113.703C107.793 113.136 108.114 112.522 108.275 111.86L112.225 113.397Z" fill="#A54E34"/>
<path d="M119.436 98.5671C118.902 98.2608 118.297 98.0903 117.621 98.0557C116.945 98.0211 116.343 98.1107 115.814 98.3244C115.541 98.4346 115.274 98.5703 115.013 98.7318C114.752 98.8932 114.537 99.0874 114.368 99.3144C114.198 99.5413 114.081 99.7938 114.016 100.072C113.951 100.35 113.987 100.657 114.123 100.994C114.24 101.282 114.397 101.498 114.595 101.642C114.793 101.786 115.037 101.883 115.328 101.933C115.619 101.984 115.949 102.004 116.318 101.995C116.687 101.986 117.098 101.964 117.551 101.931C118.205 101.89 118.892 101.859 119.612 101.839C120.331 101.819 121.024 101.898 121.693 102.075C122.361 102.253 122.979 102.558 123.545 102.991C124.112 103.424 124.567 104.065 124.91 104.915C125.305 105.893 125.467 106.812 125.394 107.671C125.322 108.53 125.075 109.315 124.654 110.026C124.232 110.737 123.674 111.363 122.979 111.905C122.284 112.447 121.52 112.886 120.686 113.223C119.468 113.715 118.204 113.979 116.894 114.014C115.584 114.049 114.394 113.826 113.323 113.345L114.909 109.515C115.533 109.86 116.255 110.067 117.076 110.136C117.896 110.206 118.643 110.105 119.317 109.833C119.621 109.709 119.905 109.558 120.167 109.377C120.43 109.196 120.64 108.99 120.799 108.758C120.957 108.526 121.051 108.264 121.082 107.972C121.114 107.68 121.061 107.365 120.925 107.029C120.796 106.708 120.605 106.468 120.354 106.308C120.103 106.149 119.792 106.037 119.421 105.972C119.05 105.907 118.613 105.888 118.111 105.914C117.609 105.94 117.041 105.978 116.409 106.028C115.793 106.072 115.175 106.079 114.557 106.049C113.939 106.019 113.349 105.898 112.788 105.687C112.227 105.475 111.714 105.151 111.249 104.714C110.783 104.278 110.395 103.675 110.084 102.905C109.702 101.959 109.567 101.072 109.68 100.243C109.793 99.4145 110.074 98.6574 110.524 97.9719C110.975 97.2865 111.552 96.6849 112.257 96.1671C112.961 95.6493 113.715 95.2285 114.516 94.9047C115.478 94.516 116.531 94.2957 117.676 94.2435C118.82 94.1914 119.908 94.3578 120.94 94.7427L119.436 98.5671Z" fill="#A54E34"/>
</g>
</g>
<defs>
<clipPath id="clip0_1_678">
<rect width="173" height="173" fill="white"/>
</clipPath>
<clipPath id="clip1_1_678">
<rect width="173" height="173" fill="white"/>
</clipPath>
</defs>
</svg>
