<svg width="169" height="169" viewBox="0 0 169 169" fill="none" xmlns="http://www.w3.org/2000/svg">
<g clip-path="url(#clip0_1_768)">
<g clip-path="url(#clip1_1_768)">
<path d="M13.3295 34.9457L107.931 1.44339C118.23 -2.209 129.528 3.08822 133.338 13.2846L133.458 13.6152C133.459 13.6167 133.459 13.6181 133.456 13.621L166.949 108.267C170.63 118.68 165.178 130.107 154.769 133.798L60.1679 167.3C49.8681 170.953 38.5706 165.655 34.7605 155.459L34.6402 155.128C34.6397 155.127 34.6392 155.126 34.643 155.123L1.14905 60.4765C-2.53102 50.0637 2.92065 38.6368 13.3295 34.9457Z" fill="#99D7F1"/>
<path d="M55.3959 62.9764C55.7625 63.9837 55.8847 64.9007 55.7623 65.7272C55.64 66.5538 55.3388 67.2936 54.8589 67.9466C54.379 68.5997 53.7602 69.1745 53.0026 69.6711C52.2449 70.1677 51.4192 70.5786 50.5256 70.9038L48.454 71.6578L50.8225 78.165L46.6549 79.6819L40.3746 62.4268L46.7112 60.1205C47.6536 59.7775 48.569 59.5501 49.4575 59.4383C50.3461 59.3266 51.1704 59.3669 51.9304 59.5595C52.6905 59.752 53.3679 60.1219 53.9627 60.669C54.5574 61.2161 55.0352 61.9853 55.3959 62.9764ZM51.2372 64.5176C51.0894 64.1114 50.8869 63.8079 50.6298 63.6071C50.3727 63.4062 50.0795 63.283 49.75 63.2373C49.4206 63.1916 49.0724 63.2079 48.7053 63.2863C48.3382 63.3647 47.9678 63.472 47.5941 63.608L45.7663 64.2733L47.2477 68.3433L49.0024 67.7046C49.3924 67.5627 49.7542 67.3942 50.088 67.1991C50.4218 67.004 50.7013 66.7735 50.9265 66.5075C51.1517 66.2415 51.2967 65.9449 51.3616 65.6177C51.4266 65.2905 51.3851 64.9238 51.2372 64.5176Z" fill="#384C75"/>
<path d="M62.862 73.7832L56.5817 56.5281L60.7736 55.0024L65.7322 68.6261L72.41 66.1956L73.7317 69.8269L62.862 73.7832Z" fill="#384C75"/>
<path d="M87.989 64.6375L85.4155 61.7377L78.7377 64.1682L78.7034 68.0172L74.1703 69.6671L75.1283 49.7775L79.174 48.305L92.6195 62.9521L87.989 64.6375ZM78.7546 53.6741L78.7167 60.3947L83.0548 58.8158L78.7546 53.6741Z" fill="#384C75"/>
<path d="M105.634 58.2153L94.5809 49.4593L94.5078 49.486L98.7123 60.7345L94.6667 62.207L88.3864 44.952L93.1388 43.2222L104.158 51.9626L104.232 51.936L100.036 40.7119L104.082 39.2394L110.362 56.4944L105.634 58.2153Z" fill="#384C75"/>
<path d="M58.7623 94.5953L61.4235 101.907L57.2559 103.424L54.5948 96.1122L44.4928 88.5281L49.5377 86.6919L55.5419 91.7378L56.8979 84.0131L61.7722 82.239L58.7623 94.5953Z" fill="#384C75"/>
<path d="M83.9929 83.8388C84.4897 85.2036 84.7079 86.5364 84.6478 87.8371C84.5876 89.1378 84.2855 90.3426 83.7414 91.4514C83.1974 92.5602 82.4285 93.5439 81.4345 94.4024C80.4406 95.261 79.2694 95.9357 77.9208 96.4265C76.5723 96.9174 75.2454 97.1519 73.9403 97.1301C72.6352 97.1083 71.4179 96.8476 70.2884 96.3479C69.1589 95.8482 68.1531 95.1195 67.2709 94.1618C66.3887 93.204 65.6992 92.0428 65.2025 90.678C64.6998 89.2969 64.4816 87.9642 64.5477 86.6797C64.6137 85.3952 64.9232 84.2108 65.4761 83.1264C66.029 82.0419 66.8013 81.08 67.793 80.2407C68.7848 79.4013 69.9549 78.7362 71.3034 78.2454C72.652 77.7545 73.9799 77.5104 75.2873 77.513C76.5946 77.5155 77.8086 77.7545 78.9292 78.2298C80.0498 78.7052 81.0483 79.4136 81.9245 80.355C82.8008 81.2965 83.4903 82.4578 83.9929 83.8388ZM79.5329 85.4621C79.2609 84.7147 78.8848 84.0604 78.4045 83.4992C77.9242 82.938 77.3846 82.5043 76.7855 82.1979C76.1864 81.8916 75.5334 81.7152 74.8265 81.6689C74.1196 81.6226 73.4006 81.7325 72.6695 81.9986C71.9383 82.2647 71.321 82.6412 70.8174 83.1281C70.3138 83.615 69.9269 84.1698 69.6568 84.7925C69.3866 85.4153 69.252 86.0944 69.253 86.8301C69.254 87.5658 69.3904 88.3073 69.6625 89.0547C69.9463 89.8346 70.3299 90.5092 70.8131 91.0785C71.2963 91.6478 71.8389 92.0897 72.441 92.4042C73.0431 92.7187 73.6935 92.9005 74.3922 92.9498C75.0909 92.9991 75.8059 92.8907 76.537 92.6246C77.2682 92.3584 77.8855 91.9819 78.3891 91.4951C78.8927 91.0082 79.2781 90.4493 79.5453 89.8184C79.8125 89.1876 79.9482 88.4988 79.9524 87.7521C79.9566 87.0053 79.8168 86.242 79.5329 85.4621Z" fill="#384C75"/>
<path d="M102.777 79.4858C103.156 80.5257 103.326 81.5357 103.287 82.5158C103.248 83.496 103.014 84.4089 102.586 85.2548C102.158 86.1006 101.547 86.8612 100.753 87.5365C99.9596 88.2118 99.0022 88.7535 97.8811 89.1616C96.7437 89.5755 95.658 89.7775 94.624 89.7674C93.5899 89.7574 92.6452 89.5631 91.7898 89.1844C90.9343 88.8057 90.1808 88.252 89.5291 87.5232C88.8775 86.7944 88.3624 85.9101 87.9839 84.8702L84.072 74.1224L88.2152 72.6144L92.0029 83.021C92.1744 83.4922 92.3979 83.9168 92.6735 84.2949C92.9492 84.673 93.2735 84.9828 93.6466 85.2242C94.0196 85.4656 94.4488 85.6084 94.9341 85.6526C95.4194 85.6967 95.9545 85.6124 96.5394 85.3995C97.1243 85.1866 97.5884 84.9073 97.9318 84.5615C98.2751 84.2157 98.5162 83.829 98.6549 83.4013C98.7936 82.9736 98.843 82.5278 98.803 82.064C98.763 81.6002 98.6572 81.1326 98.4857 80.6615L94.698 70.2548L98.8655 68.738L102.777 79.4858Z" fill="#384C75"/>
<path d="M118.355 81.1852L112.134 75.694L110.72 76.2085L113.213 83.0569L109.118 84.5471L102.838 67.2921L109.418 64.8971C110.247 64.5955 111.086 64.3866 111.936 64.2703C112.787 64.1541 113.598 64.1853 114.372 64.3638C115.145 64.5423 115.84 64.8966 116.456 65.4268C117.072 65.9569 117.561 66.7175 117.921 67.7086C118.347 68.8785 118.388 69.9768 118.044 71.0035C117.7 72.0303 117.03 72.9183 116.033 73.6676L123.229 79.4111L118.355 81.1852ZM113.829 69.2809C113.681 68.8747 113.476 68.5767 113.214 68.387C112.952 68.1972 112.661 68.0821 112.343 68.0416C112.025 68.001 111.69 68.017 111.339 68.0895C110.988 68.162 110.659 68.2544 110.35 68.3668L108.132 69.174L109.596 73.1953L111.57 72.4768C111.911 72.3526 112.25 72.197 112.587 72.01C112.924 71.8231 113.212 71.6032 113.451 71.3506C113.69 71.0979 113.853 70.7994 113.939 70.4552C114.025 70.111 113.989 69.7196 113.829 69.2809Z" fill="#384C75"/>
<path d="M84.9272 111.126C85.4771 112.638 85.6714 114.043 85.5101 115.344C85.3487 116.645 84.9376 117.816 84.2769 118.857C83.6161 119.897 82.7696 120.794 81.7372 121.547C80.7049 122.3 79.5957 122.893 78.4096 123.324L71.9755 125.666L65.6952 108.411L71.9343 106.14C73.1529 105.697 74.4069 105.401 75.6965 105.254C76.9861 105.107 78.2137 105.193 79.3793 105.514C80.5449 105.835 81.6131 106.445 82.5839 107.343C83.5547 108.24 84.3358 109.502 84.9272 111.126ZM80.589 112.705C80.2342 111.731 79.7816 110.98 79.2312 110.453C78.6808 109.927 78.072 109.569 77.405 109.379C76.738 109.19 76.0378 109.136 75.3044 109.219C74.571 109.302 73.8468 109.474 73.1319 109.734L71.0603 110.488L74.7327 120.578L76.7068 119.859C77.4542 119.587 78.1421 119.24 78.7705 118.818C79.399 118.396 79.9062 117.894 80.2924 117.312C80.6785 116.73 80.9117 116.056 80.992 115.291C81.0723 114.526 80.9379 113.664 80.589 112.705Z" fill="#384C75"/>
<path d="M102.562 114.534L99.9883 111.634L93.3105 114.064L93.2762 117.913L88.7431 119.563L89.7011 99.6737L93.7468 98.2012L107.192 112.848L102.562 114.534ZM93.3273 103.57L93.2894 110.291L97.6276 108.712L93.3273 103.57Z" fill="#384C75"/>
<path d="M113.5 102.272L116.161 109.584L111.993 111.101L109.332 103.789L99.2303 96.2053L104.275 94.3691L110.279 99.415L111.635 91.6902L116.51 89.9161L113.5 102.272Z" fill="#384C75"/>
</g>
</g>
<defs>
<clipPath id="clip0_1_768">
<rect width="169" height="169" fill="white"/>
</clipPath>
<clipPath id="clip1_1_768">
<rect width="169" height="169" fill="white"/>
</clipPath>
</defs>
</svg>
