<svg width="227" height="114" viewBox="0 0 227 114" fill="none" xmlns="http://www.w3.org/2000/svg">
<g clip-path="url(#clip0_1_660)">
<g clip-path="url(#clip1_1_660)">
<path d="M103.604 1.11274C106.66 0.0232895 109.942 -0.27175 113.145 0.253401L215.044 16.978C219.348 17.6846 222.628 21.2069 223.021 25.5418L226.891 68.3474C227.283 72.6823 224.687 76.7336 220.58 78.1973L123.327 112.857C120.271 113.947 116.988 114.242 113.786 113.717L11.8862 96.992C7.58219 96.2854 4.30176 92.7631 3.90977 88.4282L0.039002 45.6227C-0.352993 41.2878 2.24257 37.2365 6.35024 35.7727L103.604 1.11274Z" fill="#99D7F1"/>
<path d="M81.7248 48.8096C81.813 49.8172 81.6873 50.6815 81.3478 51.4027C81.0083 52.1239 80.5267 52.7218 79.903 53.1965C79.2793 53.6712 78.5542 54.0366 77.7276 54.2927C76.901 54.5488 76.0447 54.7157 75.1587 54.7932L67.8102 55.4361L66.1961 36.9866L73.5446 36.3437C74.2568 36.2814 74.9929 36.2914 75.7529 36.3737C76.5128 36.456 77.2123 36.6487 77.8515 36.9516C78.4907 37.2545 79.028 37.6933 79.4634 38.2679C79.8988 38.8425 80.1575 39.5988 80.2396 40.5369C80.3293 41.5619 80.1254 42.4331 79.628 43.1506C79.1306 43.8681 78.4431 44.414 77.5656 44.7884L77.5702 44.8405C78.099 44.8817 78.6038 44.9995 79.0847 45.1937C79.5656 45.388 79.9913 45.6527 80.362 45.9879C80.7327 46.3231 81.0392 46.7251 81.2815 47.1941C81.5239 47.663 81.6716 48.2015 81.7248 48.8096ZM75.9924 41.5125C75.9377 40.8871 75.6589 40.4519 75.1561 40.2071C74.6533 39.9622 73.9328 39.8808 72.9947 39.9629L70.8058 40.1544L71.1386 43.959L73.536 43.7492C74.3699 43.6763 75.0022 43.4503 75.4329 43.0712C75.8636 42.6922 76.0501 42.1726 75.9924 41.5125ZM77.2324 48.7825C77.1655 48.0181 76.8325 47.5133 76.2334 47.2681C75.6342 47.023 74.8569 46.9422 73.9014 47.0258L71.4259 47.2423L71.7952 51.4638L74.2968 51.245C74.6443 51.2146 75.0021 51.1526 75.3703 51.0591C75.7385 50.9657 76.0677 50.8275 76.3581 50.6445C76.6484 50.4616 76.8766 50.2184 77.0426 49.915C77.2086 49.6117 77.2719 49.2342 77.2324 48.7825Z" fill="#556265"/>
<path d="M104.208 42.8776C104.336 44.3369 104.2 45.6923 103.802 46.9437C103.404 48.1952 102.795 49.29 101.976 50.2282C101.156 51.1664 100.15 51.924 98.9579 52.501C97.7655 53.0779 96.4484 53.4295 95.0065 53.5556C93.5646 53.6818 92.2107 53.5639 90.9449 53.202C89.6791 52.8401 88.5613 52.2683 87.5914 51.4867C86.6215 50.705 85.8318 49.7325 85.2224 48.5692C84.6129 47.4059 84.2444 46.0946 84.1167 44.6354C83.9875 43.1587 84.1228 41.8034 84.5225 40.5693C84.9222 39.3352 85.5329 38.2621 86.3546 37.3499C87.1763 36.4378 88.1798 35.7023 89.365 35.1435C90.5503 34.5846 91.8638 34.2421 93.3057 34.116C94.7476 33.9898 96.1051 34.0986 97.378 34.4424C98.651 34.7862 99.7713 35.3359 100.739 36.0915C101.707 36.8471 102.494 37.7978 103.102 38.9438C103.71 40.0897 104.079 41.401 104.208 42.8776ZM99.4391 43.2948C99.3692 42.4957 99.1736 41.7601 98.8522 41.088C98.5308 40.4159 98.1183 39.8524 97.6146 39.3976C97.1109 38.9428 96.5208 38.6005 95.8443 38.3709C95.1677 38.1412 94.4386 38.0606 93.6568 38.129C92.8751 38.1974 92.1753 38.403 91.5576 38.7459C90.9399 39.0888 90.4182 39.5283 89.9925 40.0644C89.5667 40.6006 89.2583 41.2271 89.0672 41.9441C88.8761 42.661 88.8155 43.419 88.8854 44.2182C88.9584 45.052 89.1559 45.8094 89.4781 46.4901C89.8002 47.1709 90.2135 47.7431 90.718 48.2066C91.2224 48.6701 91.8086 49.0171 92.4764 49.2475C93.1443 49.4779 93.8691 49.5589 94.6508 49.4905C95.4326 49.4221 96.1323 49.2165 96.75 48.8736C97.3677 48.5307 97.889 48.0869 98.314 47.542C98.739 46.9972 99.051 46.3616 99.25 45.6352C99.4491 44.9088 99.5121 44.1287 99.4391 43.2948Z" fill="#556265"/>
<path d="M127.035 40.8804C127.163 42.3396 127.028 43.695 126.63 44.9465C126.231 46.1979 125.623 47.2928 124.803 48.231C123.984 49.1692 122.978 49.9268 121.785 50.5037C120.593 51.0807 119.276 51.4322 117.834 51.5584C116.392 51.6845 115.038 51.5667 113.772 51.2048C112.507 50.8429 111.389 50.2711 110.419 49.4894C109.449 48.7078 108.659 47.7353 108.05 46.572C107.44 45.4087 107.072 44.0974 106.944 42.6381C106.815 41.1615 106.95 39.8061 107.35 38.572C107.75 37.3379 108.36 36.2648 109.182 35.3527C110.004 34.4405 111.007 33.705 112.192 33.1462C113.378 32.5874 114.691 32.2449 116.133 32.1187C117.575 31.9926 118.932 32.1014 120.205 32.4452C121.478 32.7889 122.599 33.3386 123.566 34.0942C124.534 34.8498 125.322 35.8006 125.93 36.9465C126.538 38.0924 126.906 39.4037 127.035 40.8804ZM122.267 41.2976C122.197 40.4984 122.001 39.7628 121.68 39.0907C121.358 38.4186 120.946 37.8552 120.442 37.4003C119.938 36.9455 119.348 36.6033 118.672 36.3736C117.995 36.144 117.266 36.0633 116.484 36.1317C115.702 36.2001 115.003 36.4058 114.385 36.7487C113.767 37.0915 113.246 37.531 112.82 38.0672C112.394 38.6033 112.086 39.2299 111.895 39.9468C111.704 40.6637 111.643 41.4218 111.713 42.2209C111.786 43.0548 111.983 43.8121 112.305 44.4929C112.628 45.1737 113.041 45.7458 113.545 46.2093C114.05 46.6729 114.636 47.0198 115.304 47.2502C115.972 47.4806 116.696 47.5617 117.478 47.4933C118.26 47.4249 118.96 47.2192 119.577 46.8764C120.195 46.5335 120.716 46.0896 121.141 45.5448C121.566 44.9999 121.878 44.3643 122.077 43.638C122.276 42.9116 122.339 42.1315 122.267 41.2976Z" fill="#556265"/>
<path d="M139.997 35.3613C139.572 34.9083 139.039 34.5655 138.397 34.3328C137.755 34.1001 137.147 34.0089 136.574 34.059C136.279 34.0849 135.981 34.1371 135.682 34.2159C135.383 34.2946 135.118 34.4184 134.887 34.5873C134.657 34.7563 134.47 34.9652 134.325 35.2142C134.181 35.4632 134.124 35.7701 134.156 36.1349C134.184 36.4476 134.272 36.7025 134.42 36.8995C134.569 37.0966 134.776 37.2623 135.041 37.3966C135.307 37.5309 135.619 37.648 135.978 37.7479C136.337 37.8478 136.739 37.9483 137.186 38.0492C137.829 38.203 138.501 38.3762 139.201 38.5688C139.9 38.7614 140.546 39.0419 141.139 39.4102C141.731 39.7785 142.237 40.255 142.655 40.8398C143.074 41.4246 143.324 42.1774 143.404 43.0981C143.497 44.1579 143.382 45.0913 143.059 45.8986C142.735 46.7059 142.266 47.3903 141.65 47.9519C141.033 48.5134 140.31 48.953 139.481 49.2707C138.651 49.5884 137.784 49.7868 136.881 49.8658C135.56 49.9813 134.263 49.8628 132.989 49.5104C131.716 49.1579 130.633 48.5918 129.742 47.812L132.401 44.586C132.901 45.1024 133.537 45.515 134.308 45.8239C135.079 46.1328 135.829 46.2554 136.559 46.1915C136.889 46.1627 137.207 46.0998 137.514 46.003C137.821 45.9061 138.084 45.7692 138.305 45.5924C138.526 45.4155 138.695 45.1907 138.811 44.918C138.927 44.6452 138.969 44.3264 138.937 43.9616C138.907 43.6142 138.794 43.3264 138.599 43.0984C138.404 42.8704 138.137 42.6706 137.798 42.4989C137.459 42.3272 137.044 42.1798 136.552 42.0565C136.06 41.9333 135.501 41.8027 134.876 41.6648C134.269 41.5254 133.672 41.3501 133.084 41.1389C132.497 40.9277 131.964 40.6374 131.485 40.2679C131.006 39.8984 130.607 39.4344 130.287 38.876C129.967 38.3176 129.77 37.6215 129.697 36.7876C129.607 35.7626 129.739 34.8671 130.092 34.101C130.445 33.3349 130.94 32.6876 131.576 32.1593C132.213 31.631 132.947 31.221 133.78 30.9294C134.612 30.6377 135.462 30.4539 136.331 30.3779C137.373 30.2867 138.454 30.3847 139.573 30.6719C140.692 30.9591 141.693 31.4405 142.575 32.1161L139.997 35.3613Z" fill="#556265"/>
<path d="M153.773 33.1583L155.054 47.8032L150.598 48.1931L149.317 33.5482L144.105 34.0041L143.772 30.1996L158.652 28.8978L158.985 32.7023L153.773 33.1583Z" fill="#556265"/>
<path d="M42.0597 69.19L43.3409 83.8349L38.8849 84.2247L37.6036 69.5798L32.3919 70.0358L32.0591 66.2313L46.9385 64.9295L47.2714 68.734L42.0597 69.19Z" fill="#556265"/>
<path d="M51.2366 83.1441L49.6225 64.6946L62.0264 63.6094L62.357 67.3879L54.2528 68.097L54.556 71.5627L62.2172 70.8925L62.5295 74.4625L54.8683 75.1328L55.2034 78.9634L63.7767 78.2133L64.1096 82.0179L51.2366 83.1441Z" fill="#556265"/>
<path d="M80.2137 80.6089L78.4636 77.1122L71.3236 77.7369L70.2854 81.4775L65.4385 81.9016L71.5638 62.775L75.8895 62.3966L85.1649 80.1758L80.2137 80.6089ZM74.0794 67.5177L72.2881 74.0551L76.9265 73.6493L74.0794 67.5177Z" fill="#556265"/>
<path d="M104.083 78.5206L103.045 65.4561L102.967 65.463L99.3146 78.9378L96.1876 79.2114L90.3809 66.5641L90.3028 66.571L91.5492 79.6172L87.3538 79.9842L85.7397 61.5348L92.0719 60.9808L97.3023 72.4443L97.4066 72.4352L100.385 60.2535L106.821 59.6904L108.435 78.1399L104.083 78.5206Z" fill="#556265"/>
<path d="M132.435 76.0401L128.031 76.4254L123.291 64.2626L123.213 64.2694L120.657 77.0706L116.227 77.4582L109.375 59.467L114.17 59.0475L118.162 71.0657L118.24 71.0589L120.45 58.4981L125.088 58.0922L129.471 70.0763L129.549 70.0694L131.446 57.536L136.085 57.1302L132.435 76.0401Z" fill="#556265"/>
<path d="M158.357 64.3979C158.485 65.8572 158.349 67.2126 157.951 68.4641C157.553 69.7155 156.944 70.8103 156.125 71.7485C155.305 72.6867 154.3 73.4443 153.107 74.0213C151.915 74.5983 150.598 74.9498 149.156 75.076C147.714 75.2021 146.36 75.0843 145.094 74.7223C143.828 74.3604 142.71 73.7887 141.741 73.007C140.771 72.2253 139.981 71.2529 139.372 70.0896C138.762 68.9263 138.394 67.615 138.266 66.1557C138.137 64.679 138.272 63.3237 138.672 62.0896C139.071 60.8555 139.682 59.7824 140.504 58.8702C141.325 57.9581 142.329 57.2226 143.514 56.6638C144.699 56.1049 146.013 55.7625 147.455 55.6363C148.897 55.5102 150.254 55.619 151.527 55.9627C152.8 56.3065 153.92 56.8562 154.888 57.6118C155.856 58.3674 156.643 59.3182 157.251 60.4641C157.859 61.61 158.228 62.9213 158.357 64.3979ZM153.588 64.8152C153.518 64.016 153.323 63.2804 153.001 62.6083C152.68 61.9362 152.267 61.3728 151.764 60.9179C151.26 60.4631 150.67 60.1208 149.993 59.8912C149.317 59.6616 148.588 59.5809 147.806 59.6493C147.024 59.7177 146.325 59.9234 145.707 60.2662C145.089 60.6091 144.567 61.0486 144.142 61.5848C143.716 62.1209 143.408 62.7475 143.216 63.4644C143.025 64.1813 142.965 64.9394 143.035 65.7385C143.108 66.5724 143.305 67.3297 143.627 68.0105C143.949 68.6913 144.363 69.2634 144.867 69.7269C145.372 70.1904 145.958 70.5374 146.626 70.7678C147.293 70.9982 148.018 71.0792 148.8 71.0108C149.582 70.9424 150.281 70.7368 150.899 70.3939C151.517 70.051 152.038 69.6072 152.463 69.0624C152.888 68.5175 153.2 67.8819 153.399 67.1555C153.598 66.4292 153.661 65.649 153.588 64.8152Z" fill="#556265"/>
<path d="M172.643 72.5224L168.016 65.5488L166.504 65.681L167.145 73.0034L162.767 73.3865L161.153 54.937L168.189 54.3215C169.075 54.2439 169.947 54.2595 170.806 54.3682C171.664 54.4769 172.447 54.7192 173.154 55.095C173.86 55.4708 174.445 55.9973 174.907 56.6746C175.369 57.3519 175.646 58.2204 175.739 59.2802C175.848 60.531 175.601 61.6116 174.998 62.5221C174.395 63.4327 173.51 64.1228 172.343 64.5925L177.855 72.0664L172.643 72.5224ZM171.342 59.7436C171.304 59.3093 171.182 58.9655 170.976 58.7122C170.77 58.4589 170.517 58.2709 170.217 58.1483C169.918 58.0258 169.588 57.954 169.227 57.933C168.866 57.9121 168.521 57.916 168.191 57.9449L165.819 58.1524L166.196 62.452L168.306 62.2674C168.671 62.2354 169.042 62.1724 169.419 62.0781C169.796 61.9839 170.134 61.8449 170.433 61.6612C170.732 61.4775 170.968 61.2292 171.142 60.9164C171.316 60.6036 171.383 60.2127 171.342 59.7436Z" fill="#556265"/>
<path d="M191.979 70.8307L184.382 62.9353L184.33 62.9398L185.073 71.4349L180.695 71.8179L179.081 53.3685L183.459 52.9855L184.116 60.4903L184.194 60.4835L190.13 52.4018L195.707 51.9139L188.502 61.1044L197.79 70.3223L191.979 70.8307Z" fill="#556265"/>
</g>
</g>
<defs>
<clipPath id="clip0_1_660">
<rect width="226.93" height="113.97" fill="white"/>
</clipPath>
<clipPath id="clip1_1_660">
<rect width="226.93" height="113.969" fill="white" transform="translate(0 0.000366211)"/>
</clipPath>
</defs>
</svg>
