<svg width="202" height="127" viewBox="0 0 202 127" fill="none" xmlns="http://www.w3.org/2000/svg">
<g clip-path="url(#clip0_1_733)">
<g clip-path="url(#clip1_1_733)">
<path d="M38.9279 1.03417L187.445 47.993C198.001 51.3351 203.855 62.5988 200.523 73.1582L188.249 112.005C184.952 122.454 173.89 128.296 163.429 125.189L163.092 125.085L14.5719 78.1211C4.01564 74.779 -1.83779 63.5153 1.49413 52.9559L13.768 14.1092C17.0649 3.66052 28.1267 -2.18237 38.5879 0.925551L38.9252 1.02892C38.9265 1.02934 38.9278 1.02976 38.9279 1.03417Z" fill="#F6CF98"/>
<path d="M55.4259 41.1758L54.2528 44.7863L61.0288 46.988L59.8958 50.475L53.1198 48.2733L50.9101 55.074L46.7307 53.7161L52.4197 36.2072L63.9439 39.9517L62.7707 43.5622L55.4259 41.1758Z" fill="#A54E34"/>
<path d="M61.5935 58.5453L67.2825 41.0364L71.536 42.4185L65.8471 59.9273L61.5935 58.5453Z" fill="#A54E34"/>
<path d="M80.6356 64.7325L78.8113 57.3045L73.1177 62.2897L68.0727 60.6505L77.211 53.3942L74.2563 43.3024L79.3507 44.9576L80.8473 51.4589L85.83 47.0629L90.7513 48.6619L82.5279 55.1218L85.8536 66.4279L80.6356 64.7325Z" fill="#A54E34"/>
<path d="M112.834 75.1944L108.655 73.8364L109.041 60.8658L108.967 60.8417L101.656 71.5624L97.452 70.1964L98.1703 51.0725L102.721 52.551L101.706 65.0988L101.78 65.1229L108.681 54.4875L113.083 55.9178L112.439 68.5861L112.513 68.6102L119.117 57.8784L123.519 59.3086L112.834 75.1944Z" fill="#A54E34"/>
<path d="M120.253 77.605L125.942 60.0961L130.196 61.4782L124.507 78.987L120.253 77.605Z" fill="#A54E34"/>
<path d="M137.431 67.8208L136.258 71.4313L143.034 73.633L141.901 77.1199L135.125 74.9183L132.915 81.719L128.735 80.3611L134.424 62.8522L145.949 66.5966L144.775 70.2072L137.431 67.8208Z" fill="#A54E34"/>
<path d="M143.598 85.1903L149.287 67.6814L153.541 69.0635L147.852 86.5723L143.598 85.1903Z" fill="#A54E34"/>
</g>
</g>
<defs>
<clipPath id="clip0_1_733">
<rect width="201.52" height="126.33" fill="white"/>
</clipPath>
<clipPath id="clip1_1_733">
<rect width="201.52" height="126.326" fill="white" transform="translate(0 0.00201416)"/>
</clipPath>
</defs>
</svg>
