<svg width="20" height="32" viewBox="0 0 20 32" fill="none" xmlns="http://www.w3.org/2000/svg">
<g clip-path="url(#clip0_1_574)">
<path fill-rule="evenodd" clip-rule="evenodd" d="M11.3401 10.7022C11.1907 10.5525 11.1068 10.3495 11.1068 10.138C11.1068 9.92648 11.1907 9.72357 11.3401 9.5738L14.9159 5.99696C14.9901 5.92267 15.0782 5.86374 15.1752 5.82353C15.2722 5.78333 15.3762 5.76263 15.4812 5.76263C15.5862 5.76263 15.6901 5.78333 15.7871 5.82353C15.8841 5.86374 15.9722 5.92267 16.0464 5.99696L19.6212 9.5738C19.6953 9.64789 19.754 9.73585 19.7941 9.83266C19.8342 9.92947 19.8549 10.0332 19.8549 10.138C19.8549 10.2428 19.8342 10.3466 19.7941 10.4434C19.754 10.5402 19.6953 10.6281 19.6212 10.7022L16.0464 14.2791C15.9722 14.3533 15.8841 14.4123 15.7871 14.4525C15.6901 14.4927 15.5862 14.5134 15.4812 14.5134C15.3762 14.5134 15.2722 14.4927 15.1752 14.4525C15.0782 14.4123 14.9901 14.3533 14.9159 14.2791L11.3401 10.7022ZM9.36328 8.72643L5.78749 5.15064C5.71295 5.07658 5.65379 4.98851 5.61343 4.8915C5.57306 4.79449 5.55228 4.69045 5.55228 4.58538C5.55228 4.48031 5.57306 4.37627 5.61343 4.27926C5.65379 4.18225 5.71295 4.09418 5.78749 4.02012L9.36328 0.444328C9.51309 0.294621 9.71622 0.210526 9.92801 0.210526C10.1398 0.210526 10.3429 0.294621 10.4928 0.444328L14.0696 4.02012C14.1439 4.09432 14.2028 4.18243 14.243 4.27943C14.2832 4.37642 14.3039 4.48038 14.3039 4.58538C14.3039 4.69038 14.2832 4.79434 14.243 4.89134C14.2028 4.98833 14.1439 5.07644 14.0696 5.15064L10.4928 8.72643C10.3429 8.87614 10.1398 8.96023 9.92801 8.96023C9.71622 8.96023 9.51309 8.87614 9.36328 8.72643ZM9.36328 11.5506C9.51309 11.4009 9.71622 11.3168 9.92801 11.3168C10.1398 11.3168 10.3429 11.4009 10.4928 11.5506L14.0696 15.1264C14.1439 15.2006 14.2028 15.2887 14.243 15.3857C14.2832 15.4827 14.3039 15.5867 14.3039 15.6917C14.3039 15.7967 14.2832 15.9007 14.243 15.9977C14.2028 16.0946 14.1439 16.1828 14.0696 16.257L10.4928 19.8317C10.4186 19.906 10.3306 19.9649 10.2337 20.0051C10.1368 20.0452 10.0329 20.0659 9.92801 20.0659C9.8231 20.0659 9.71922 20.0452 9.62232 20.0051C9.52541 19.9649 9.43739 19.906 9.36328 19.8317L5.78749 16.257C5.71295 16.1829 5.65379 16.0948 5.61343 15.9978C5.57306 15.9008 5.55228 15.7968 5.55228 15.6917C5.55228 15.5866 5.57306 15.4826 5.61343 15.3856C5.65379 15.2886 5.71295 15.2005 5.78749 15.1264L9.36328 11.5506ZM3.81064 14.2791L0.234855 10.7033C0.160569 10.6291 0.101638 10.541 0.0614297 10.444C0.0212218 10.347 0.000526206 10.243 0.000526206 10.138C0.000526206 10.033 0.0212218 9.92905 0.0614297 9.83206C0.101638 9.73507 0.160569 9.64695 0.234855 9.57275L3.81064 5.99801C3.88476 5.92376 3.97278 5.86485 4.06969 5.82466C4.16659 5.78446 4.27047 5.76377 4.37538 5.76377C4.48029 5.76377 4.58417 5.78446 4.68108 5.82466C4.77798 5.86485 4.86601 5.92376 4.94012 5.99801L8.51591 9.57275C8.66568 9.72274 8.7498 9.92605 8.7498 10.138C8.7498 10.35 8.66568 10.5533 8.51591 10.7033L4.93907 14.2791C4.78925 14.4288 4.58612 14.5129 4.37433 14.5129C4.16253 14.5129 3.96046 14.4288 3.81064 14.2791ZM16.0464 17.1033L19.6212 20.6791C19.6956 20.7531 19.7546 20.8411 19.7948 20.938C19.8351 21.0349 19.8559 21.1389 19.8559 21.2438C19.8559 21.3488 19.8351 21.4527 19.7948 21.5496C19.7546 21.6465 19.6956 21.7345 19.6212 21.8085L16.0464 25.3854C15.8966 25.5351 15.6935 25.6192 15.4817 25.6192C15.2699 25.6192 15.0668 25.5351 14.917 25.3854L11.3401 21.8085C11.1907 21.6586 11.1068 21.4555 11.1068 21.2438C11.1068 21.0321 11.1907 20.829 11.3401 20.6791L14.917 17.1033C15.0668 16.9536 15.2699 16.8695 15.4817 16.8695C15.6935 16.8695 15.8966 16.9536 16.0464 17.1033ZM10.4928 22.6559L14.0685 26.2317C14.1431 26.3058 14.2022 26.3938 14.2426 26.4908C14.283 26.5878 14.3037 26.6919 14.3037 26.797C14.3037 26.902 14.283 27.0061 14.2426 27.1031C14.2022 27.2001 14.1431 27.2882 14.0685 27.3622L10.4928 30.937C10.3429 31.0867 10.1398 31.1708 9.92801 31.1708C9.71622 31.1708 9.51309 31.0867 9.36328 30.937L5.78749 27.3612C5.7132 27.287 5.65427 27.1989 5.61406 27.1019C5.57385 27.0049 5.55316 26.9009 5.55316 26.7959C5.55316 26.6909 5.57385 26.5869 5.61406 26.49C5.65427 26.393 5.7132 26.3048 5.78749 26.2306L9.36328 22.6549C9.51309 22.5051 9.71622 22.4211 9.92801 22.4211C10.1398 22.4211 10.3429 22.5062 10.4928 22.6559ZM8.51591 20.6791C8.66561 20.8289 8.74971 21.032 8.74971 21.2438C8.74971 21.4556 8.66561 21.6587 8.51591 21.8085L4.94012 25.3854C4.79017 25.5348 4.58709 25.6187 4.37538 25.6187C4.16367 25.6187 3.9606 25.5348 3.81064 25.3854L0.233802 21.8085C0.0840953 21.6587 0 21.4556 0 21.2438C0 21.032 0.0840953 20.8289 0.233802 20.6791L3.81064 17.1033C3.96046 16.9536 4.16359 16.8695 4.37538 16.8695C4.58717 16.8695 4.7903 16.9536 4.94012 17.1033L8.51591 20.6791Z" fill="#E6C3A5"/>
</g>
<defs>
<clipPath id="clip0_1_574">
<rect width="20" height="32" fill="white"/>
</clipPath>
</defs>
</svg>
