<svg width="26" height="26" viewBox="0 0 26 26" fill="none" xmlns="http://www.w3.org/2000/svg">
<g opacity="0.45" clip-path="url(#clip0_1_556)">
<path fill-rule="evenodd" clip-rule="evenodd" d="M13 0C20.18 0 26 5.82 26 13C26 20.18 20.18 26 13 26C5.82 26 0 20.18 0 13C0 5.82 5.82 0 13 0ZM11.71 10.023V11.404H10.562L10.564 13.491L11.94 13.475V18.078H14.007V13.475H15.614L15.844 11.405H14.007V10.254C14.007 9.926 14.083 9.794 14.467 9.794H15.844L15.82 7.82C15.82 7.82 15.258 7.719 14.38 7.719C12.454 7.719 11.71 8.879 11.71 10.023Z" fill="white"/>
</g>
<defs>
<clipPath id="clip0_1_556">
<rect width="26" height="26" fill="white"/>
</clipPath>
</defs>
</svg>
