<svg width="26" height="26" viewBox="0 0 26 26" fill="none" xmlns="http://www.w3.org/2000/svg">
<g opacity="0.45" clip-path="url(#clip0_1_562)">
<path fill-rule="evenodd" clip-rule="evenodd" d="M13 0C20.18 0 26 5.82 26 13C26 20.18 20.18 26 13 26C5.82 26 0 20.18 0 13C0 5.82 5.82 0 13 0ZM11.125 8.125C10.3294 8.125 9.56629 8.44107 9.00368 9.00368C8.44107 9.56629 8.125 10.3294 8.125 11.125V14.875C8.125 15.6706 8.44107 16.4337 9.00368 16.9963C9.56629 17.5589 10.3294 17.875 11.125 17.875H14.875C15.6706 17.875 16.4337 17.5589 16.9963 16.9963C17.5589 16.4337 17.875 15.6706 17.875 14.875V11.125C17.875 10.3294 17.5589 9.56629 16.9963 9.00368C16.4337 8.44107 15.6706 8.125 14.875 8.125H11.125ZM15.228 10.174C15.2247 10.0919 15.238 10.0099 15.2671 9.93309C15.2962 9.85624 15.3406 9.78607 15.3975 9.72679C15.4544 9.66751 15.5228 9.62035 15.5984 9.58813C15.674 9.55591 15.7553 9.53931 15.8375 9.53931C15.9197 9.53931 16.001 9.55591 16.0766 9.58813C16.1522 9.62035 16.2206 9.66751 16.2775 9.72679C16.3344 9.78607 16.3788 9.85624 16.4079 9.93309C16.437 10.0099 16.4503 10.0919 16.447 10.174C16.4406 10.3314 16.3736 10.4802 16.26 10.5893C16.1464 10.6984 15.995 10.7593 15.8375 10.7593C15.68 10.7593 15.5286 10.6984 15.415 10.5893C15.3014 10.4802 15.2344 10.3314 15.228 10.174ZM13.006 15.438C12.3594 15.438 11.7393 15.1811 11.2821 14.7239C10.8249 14.2667 10.568 13.6466 10.568 13C10.568 12.3534 10.8249 11.7333 11.2821 11.2761C11.7393 10.8189 12.3594 10.562 13.006 10.562C13.6526 10.562 14.2727 10.8189 14.7299 11.2761C15.1871 11.7333 15.444 12.3534 15.444 13C15.444 13.6466 15.1871 14.2667 14.7299 14.7239C14.2727 15.1811 13.6526 15.438 13.006 15.438ZM13 14.636C13.431 14.636 13.8443 14.4648 14.149 14.16C14.4538 13.8553 14.625 13.442 14.625 13.011C14.625 12.58 14.4538 12.1667 14.149 11.862C13.8443 11.5572 13.431 11.386 13 11.386C12.569 11.386 12.1557 11.5572 11.851 11.862C11.5462 12.1667 11.375 12.58 11.375 13.011C11.375 13.442 11.5462 13.8553 11.851 14.16C12.1557 14.4648 12.569 14.636 13 14.636Z" fill="white"/>
</g>
<defs>
<clipPath id="clip0_1_562">
<rect width="26" height="26" fill="white"/>
</clipPath>
</defs>
</svg>
