<svg width="26" height="26" viewBox="0 0 26 26" fill="none" xmlns="http://www.w3.org/2000/svg">
<g opacity="0.45" clip-path="url(#clip0_1_559)">
<path fill-rule="evenodd" clip-rule="evenodd" d="M13 0C20.18 0 26 5.82 26 13C26 20.18 20.18 26 13 26C5.82 26 0 20.18 0 13C0 5.82 5.82 0 13 0ZM15.493 8.531C14.22 8.531 13.189 9.595 13.189 10.906C13.189 11.092 13.209 11.273 13.249 11.447C11.334 11.348 9.637 10.403 8.501 8.966C8.29556 9.33035 8.18807 9.74172 8.189 10.16C8.189 10.983 8.595 11.71 9.214 12.136C8.84691 12.1241 8.48839 12.0221 8.17 11.839V11.869C8.17 13.019 8.964 13.979 10.018 14.198C9.67924 14.2925 9.32302 14.3062 8.978 14.238C9.27 15.181 10.121 15.868 11.129 15.888C10.6559 16.2726 10.11 16.5579 9.52412 16.7268C8.93822 16.8957 8.32428 16.9448 7.719 16.871C8.76527 17.5666 9.99362 17.9378 11.25 17.938C15.487 17.938 17.804 14.319 17.804 11.181C17.8042 11.0786 17.8022 10.9763 17.798 10.874C18.2512 10.5354 18.6406 10.119 18.948 9.644C18.5285 9.83614 18.0819 9.96262 17.624 10.019C18.109 9.71736 18.4687 9.25075 18.637 8.705C18.1866 8.98081 17.6915 9.17575 17.174 9.281C16.9617 9.04553 16.7025 8.85714 16.4129 8.72797C16.1234 8.59879 15.81 8.5317 15.493 8.531Z" fill="white"/>
</g>
<defs>
<clipPath id="clip0_1_559">
<rect width="26" height="26" fill="white"/>
</clipPath>
</defs>
</svg>
