<svg width="26" height="26" viewBox="0 0 26 26" fill="none" xmlns="http://www.w3.org/2000/svg">
<g opacity="0.45" clip-path="url(#clip0_1_565)">
<path fill-rule="evenodd" clip-rule="evenodd" d="M13 0C20.18 0 26 5.82 26 13C26 20.18 20.18 26 13 26C5.82 26 0 20.18 0 13C0 5.82 5.82 0 13 0ZM18.45 10.206C18.3868 9.96187 18.2607 9.73861 18.0841 9.55856C17.9076 9.3785 17.6868 9.24796 17.444 9.18C16.557 8.938 13 8.938 13 8.938C13 8.938 9.443 8.938 8.556 9.18C8.31316 9.24796 8.09243 9.3785 7.91588 9.55856C7.73934 9.73861 7.61317 9.96187 7.55 10.206C7.313 11.111 7.313 13 7.313 13C7.313 13 7.313 14.889 7.55 15.794C7.68 16.294 8.066 16.686 8.556 16.82C9.443 17.062 13 17.062 13 17.062C13 17.062 16.557 17.062 17.444 16.82C17.6868 16.752 17.9076 16.6215 18.0841 16.4414C18.2607 16.2614 18.3868 16.0381 18.45 15.794C18.688 14.889 18.688 13 18.688 13C18.688 13 18.688 11.111 18.45 10.206ZM11.743 14.888V11.058L15.121 12.973L11.743 14.888Z" fill="white"/>
</g>
<defs>
<clipPath id="clip0_1_565">
<rect width="26" height="26" fill="white"/>
</clipPath>
</defs>
</svg>
