<svg width="76" height="120" viewBox="0 0 76 120" fill="none" xmlns="http://www.w3.org/2000/svg">
<g clip-path="url(#clip0_1_460)">
<g clip-path="url(#clip1_1_460)">
<path fill-rule="evenodd" clip-rule="evenodd" d="M43.405 40.6662C42.8316 40.082 42.5103 39.2962 42.5103 38.4777C42.5103 37.6591 42.8316 36.8733 43.405 36.2892L57.092 22.4292C57.3741 22.1416 57.7106 21.9132 58.082 21.7573C58.4534 21.6013 58.8522 21.521 59.255 21.521C59.6578 21.521 60.0566 21.6013 60.4279 21.7573C60.7993 21.9132 61.1359 22.1416 61.418 22.4292L75.102 36.2892C75.6768 36.8725 75.9991 37.6586 75.9991 38.4777C75.9991 39.2967 75.6768 40.0828 75.102 40.6662L61.418 54.5262C61.1359 54.8137 60.7993 55.0421 60.4279 55.198C60.0566 55.354 59.6578 55.4343 59.255 55.4343C58.8522 55.4343 58.4534 55.354 58.082 55.198C57.7106 55.0421 57.3741 54.8137 57.092 54.5262L43.405 40.6662ZM35.838 33.0062L22.153 19.1462C21.5768 18.5629 21.2536 17.7761 21.2536 16.9562C21.2536 16.1363 21.5768 15.3494 22.153 14.7662L35.838 0.906155C36.1201 0.619343 36.4564 0.391551 36.8274 0.236059C37.1985 0.0805681 37.5967 0.000488281 37.999 0.000488281C38.4013 0.000488281 38.7995 0.0805681 39.1706 0.236059C39.5416 0.391551 39.8779 0.619343 40.16 0.906155L53.85 14.7662C54.4248 15.3502 54.747 16.1367 54.747 16.9562C54.747 17.7756 54.4248 18.5622 53.85 19.1462L40.16 33.0062C39.8779 33.293 39.5416 33.5208 39.1706 33.6763C38.7995 33.8317 38.4013 33.9118 37.999 33.9118C37.5967 33.9118 37.1985 33.8317 36.8274 33.6763C36.4564 33.5208 36.1201 33.293 35.838 33.0062ZM35.838 43.9512C36.1201 43.6643 36.4564 43.4366 36.8274 43.2811C37.1985 43.1256 37.5967 43.0455 37.999 43.0455C38.4013 43.0455 38.7995 43.1256 39.1706 43.2811C39.5416 43.4366 39.8779 43.6643 40.16 43.9512L53.85 57.8112C54.4248 58.3952 54.747 59.1817 54.747 60.0012C54.747 60.8206 54.4248 61.6072 53.85 62.1912L40.16 76.0502C39.8783 76.3377 39.5421 76.5661 39.171 76.7221C38.8 76.8781 38.4015 76.9584 37.999 76.9584C37.5965 76.9584 37.198 76.8781 36.8269 76.7221C36.4559 76.5661 36.1197 76.3377 35.838 76.0502L22.153 62.1902C21.5768 61.6069 21.2536 60.8201 21.2536 60.0002C21.2536 59.1803 21.5768 58.3934 22.153 57.8102L35.838 43.9512ZM14.584 54.5272L0.896995 40.6672C0.32219 40.0832 3.05176e-05 39.2966 3.05176e-05 38.4772C3.05176e-05 37.6577 0.32219 36.8712 0.896995 36.2872L14.584 22.4302C14.8657 22.1426 15.2019 21.9142 15.5729 21.7582C15.944 21.6023 16.3425 21.5219 16.745 21.5219C17.1475 21.5219 17.546 21.6023 17.917 21.7582C18.2881 21.9142 18.6243 22.1426 18.906 22.4302L32.597 36.2872C33.1704 36.8719 33.4916 37.6582 33.4916 38.4772C33.4916 39.2961 33.1704 40.0824 32.597 40.6672L18.907 54.5272C18.6249 54.8141 18.2885 55.042 17.9174 55.1976C17.5463 55.3532 17.1479 55.4333 16.7455 55.4333C16.3431 55.4333 15.9447 55.3532 15.5736 55.1976C15.2025 55.042 14.8661 54.8141 14.584 54.5272ZM61.416 65.4722L75.101 79.3322C75.6772 79.9154 76.0004 80.7023 76.0004 81.5222C76.0004 82.342 75.6772 83.1289 75.101 83.7122L61.416 97.5742C61.1339 97.861 60.7976 98.0888 60.4266 98.2442C60.0555 98.3997 59.6573 98.4798 59.255 98.4798C58.8527 98.4798 58.4545 98.3997 58.0834 98.2442C57.7124 98.0888 57.3761 97.861 57.094 97.5742L43.404 83.7141C42.8306 83.1294 42.5094 82.3431 42.5094 81.5242C42.5094 80.7052 42.8306 79.9189 43.404 79.3342L57.094 65.4742C57.3761 65.1873 57.7124 64.9595 58.0834 64.8041C58.4545 64.6486 58.8527 64.5685 59.255 64.5685C59.6573 64.5685 60.0555 64.6486 60.4266 64.8041C60.7976 64.9595 61.1339 65.1873 61.416 65.4742V65.4722ZM40.16 86.9942L53.848 100.854C54.4242 101.437 54.7474 102.224 54.7474 103.044C54.7474 103.864 54.4242 104.651 53.848 105.234L40.16 119.094C39.8779 119.381 39.5416 119.609 39.1706 119.764C38.7995 119.92 38.4013 120 37.999 120C37.5967 120 37.1985 119.92 36.8274 119.764C36.4564 119.609 36.1201 119.381 35.838 119.094L22.151 105.234C21.5762 104.65 21.254 103.864 21.254 103.044C21.254 102.225 21.5762 101.438 22.151 100.854L35.838 86.9942C36.1201 86.7073 36.4564 86.4796 36.8274 86.3241C37.1985 86.1686 37.5967 86.0885 37.999 86.0885C38.4013 86.0885 38.7995 86.1686 39.1706 86.3241C39.5416 86.4796 39.8779 86.7073 40.16 86.9942ZM32.596 79.3342C33.1694 79.9183 33.4907 80.7041 33.4907 81.5227C33.4907 82.3412 33.1694 83.127 32.596 83.7112L18.91 97.5751C18.6276 97.8621 18.2909 98.09 17.9195 98.2455C17.5482 98.401 17.1496 98.4811 16.747 98.4811C16.3444 98.4811 15.9458 98.401 15.5745 98.2455C15.2031 98.09 14.8664 97.8621 14.584 97.5751L0.895995 83.7102C0.322571 83.126 0.00130942 82.3402 0.00130942 81.5217C0.00130942 80.7031 0.322571 79.9173 0.895995 79.3332L14.583 65.4732C14.8651 65.1856 15.2016 64.9572 15.573 64.8013C15.9444 64.6453 16.3432 64.565 16.746 64.565C17.1488 64.565 17.5476 64.6453 17.9189 64.8013C18.2903 64.9572 18.6269 65.1856 18.909 65.4732L32.596 79.3342Z" fill="#E6C3A5"/>
</g>
</g>
<defs>
<clipPath id="clip0_1_460">
<rect width="76" height="120" fill="white"/>
</clipPath>
<clipPath id="clip1_1_460">
<rect width="76" height="120" fill="white"/>
</clipPath>
</defs>
</svg>
